/* XPM */
static char *cano_down_xpm[] = {
"18 29 221 2",
"  	c None",
"BA	c #000100",
"CA	c #000200",
"DA	c #040D00",
"EA	c #0A1C01",
"FA	c #0D2203",
"GA	c #0D2303",
"HA	c #0B1D02",
"IA	c #060E01",
"JA	c #010300",
"KA	c #071701",
"LA	c #194206",
"MA	c #2B650C",
"NA	c #357610",
"OA	c #377912",
"PA	c #387A11",
"QA	c #347110",
"RA	c #26520D",
"SA	c #102305",
"TA	c #020500",
"UA	c #1C4C07",
"VA	c #3A8414",
"WA	c #54A820",
"XA	c #63B928",
"YA	c #67BF2B",
"ZA	c #69BE2B",
"aA	c #67B929",
"bA	c #5AA923",
"cA	c #3C7917",
"dA	c #132807",
"eA	c #030B00",
"fA	c #174006",
"gA	c #378013",
"hA	c #55A921",
"iA	c #63BB29",
"jA	c #67BD2B",
"kA	c #6AC22C",
"lA	c #6FC82F",
"mA	c #7ACC32",
"nA	c #85B92D",
"oA	c #7FB92C",
"pA	c #69BA2A",
"qA	c #3E7A18",
"rA	c #0D1D05",
"sA	c #091B01",
"tA	c #28660B",
"uA	c #499B1B",
"vA	c #4FA11E",
"wA	c #3C8716",
"xA	c #327710",
"yA	c #377F11",
"zA	c #4D9D1C",
"0A	c #71C42E",
"1A	c #84C02F",
"2A	c #82C331",
"3A	c #78CE32",
"4A	c #5FB327",
"5A	c #254E0E",
"6A	c #030801",
"7A	c #010200",
"8A	c #0E2603",
"9A	c #347810",
"+A	c #499B1A",
"/A	c #3A8213",
"AB	c #296B0C",
"BB	c #2D6E13",
"CB	c #2C6B12",
"DB	c #357C11",
"EB	c #5BB124",
"FB	c #75CE32",
"GB	c #7DCE33",
"HB	c #7DCE32",
"IB	c #6EC32D",
"JB	c #397415",
"KB	c #091403",
"LB	c #132E05",
"MB	c #408A17",
"NB	c #4FA21D",
"OB	c #398212",
"PB	c #3B8416",
"QB	c #5F9F40",
"RB	c #63A145",
"SB	c #4A981D",
"TB	c #4FA11D",
"UB	c #73C72F",
"VB	c #87BC2E",
"WB	c #8AB82D",
"XB	c #76C42F",
"YB	c #488C1C",
"ZB	c #0E1F05",
"aB	c #010100",
"bB	c #132E06",
"cB	c #428E18",
"dB	c #54A920",
"eB	c #3E8915",
"fB	c #418A19",
"gB	c #6CA947",
"hB	c #76B450",
"iB	c #58A926",
"jB	c #52A51F",
"kB	c #75C42E",
"lB	c #82C631",
"mB	c #83C836",
"nB	c #7CCA3D",
"oB	c #509225",
"pB	c #102006",
"qB	c #102604",
"rB	c #3E8316",
"sB	c #59AE22",
"tB	c #4C9C1C",
"uB	c #3D8316",
"vB	c #498925",
"wB	c #52962B",
"xB	c #54A422",
"yB	c #6ABA2A",
"zB	c #84BA2D",
"0B	c #85C035",
"1B	c #86CE4A",
"2B	c #8CCB5E",
"3B	c #558832",
"4B	c #0E1A06",
"5B	c #091502",
"6B	c #2B610E",
"7B	c #4E9E1D",
"8B	c #5AAE23",
"9B	c #57A822",
"+B	c #56A523",
"/B	c #5AAC25",
"AC	c #61B728",
"BC	c #81BC32",
"CC	c #88BD49",
"DC	c #90C66B",
"EC	c #8BBA6C",
"FC	c #3F602B",
"GC	c #070C03",
"HC	c #010400",
"IC	c #102A04",
"JC	c #2F6C0E",
"KC	c #4C9B1B",
"LC	c #58AB21",
"MC	c #58AC22",
"NC	c #5BAF24",
"OC	c #65AE36",
"PC	c #7DB462",
"QC	c #88B579",
"RC	c #5E8849",
"SC	c #192A0F",
"TC	c #010301",
"UC	c #123005",
"VC	c #28620B",
"WC	c #337910",
"XC	c #368111",
"YC	c #398213",
"ZC	c #3C8614",
"aC	c #388014",
"bC	c #3A7D1B",
"cC	c #457F30",
"dC	c #426E34",
"eC	c #1D3315",
"fC	c #040702",
"gC	c #050E01",
"hC	c #0D2703",
"iC	c #2C6D0E",
"jC	c #4FA01F",
"kC	c #5CAF26",
"lC	c #57A625",
"mC	c #41841C",
"nC	c #1F4A0B",
"oC	c #091803",
"pC	c #010500",
"qC	c #1E440A",
"rC	c #539F21",
"sC	c #6AC32C",
"tC	c #6AB635",
"uC	c #47702D",
"vC	c #12210B",
"wC	c #050B01",
"xC	c #306411",
"yC	c #52A41F",
"zC	c #4A8B21",
"0C	c #1B2A11",
"1C	c #020301",
"2C	c #2A580F",
"3C	c #5DAF28",
"4C	c #4A8A23",
"5C	c #0A1604",
"6C	c #336315",
"7C	c #7AC743",
"8C	c #6C9C49",
"9C	c #0E1908",
"+C	c #356515",
"/C	c #7EC64C",
"AD	c #6E965B",
"BD	c #0E180A",
"CD	c #356615",
"DD	c #80C84D",
"ED	c #74985D",
"FD	c #0F180B",
"GD	c #020400",
"HD	c #315E13",
"ID	c #77B846",
"JD	c #709356",
"KD	c #0F1A0A",
"LD	c #0A1903",
"MD	c #295A0D",
"ND	c #447626",
"OD	c #446931",
"PD	c #17310B",
"QD	c #132F06",
"RD	c #336C12",
"SD	c #467927",
"TD	c #4B7335",
"UD	c #234911",
"VD	c #071103",
"WD	c #060F02",
"XD	c #1A3609",
"YD	c #2A4618",
"ZD	c #2B3F20",
"aD	c #0F1D08",
"bD	c #020401",
"cD	c #020402",
"                                    ",
"                                    ",
"            BABABABABABA            ",
"        CADAEAFAGAGAGAHAIAJA        ",
"      JAKALAMANAOAOAPAQARASATA      ",
"    BAKAUAVAWAXAYAYAZAaAbAcAdAJA    ",
"    eAfAgAhAiAjAkAlAmAnAoApAqArABA  ",
"  BAsAtAuAvAwAxAyAzA0A1A2A3A4A5A6A  ",
"  7A8A9A+A/AABBBCBDBEBFBGBHBIBJBKBBA",
"  JALBMBNBOBPBQBRBSBTBUBVBWBXBYBZBaB",
"  JAbBcBdBeBfBgBhBiBjBkBlBmBnBoBpBaB",
"  7AqBrBsBtBuBvBwBxByBzB0B1B2B3B4BBA",
"    5B6B7B8B9B+B/BACUBBCCCDCECFCGC  ",
"    HCICJCKCLCLCMCsBNCOCPCQCRCSCTC  ",
"      6AUCVCWCXCYCZCaCbCcCdCeCfC    ",
"        HCgChCiCjCkClCmCnCoCJA      ",
"            pCqCrCsCtCuCvC7A        ",
"              wCxCyCzC0C1C          ",
"              JA2C3C4C5C            ",
"              JA6C7C8C9C            ",
"              TC+C/CADBD            ",
"              JACDDDEDFD            ",
"              GDHDIDJDKDBA          ",
"              LDMDNDODPD6A          ",
"            BAQDRDSDTDUDVD          ",
"              WDXDYDZDaDbD          ",
"                JAbDcDBA            ",
"                                    ",
"                                    "
};
