/* XPM */
static char *cano_right_xpm[] = {
"29 18 221 2",
"  	c None",
"BA	c #000100",
"CA	c #010100",
"DA	c #030801",
"EA	c #091403",
"FA	c #0E1F05",
"GA	c #102006",
"HA	c #0E1A06",
"IA	c #070C03",
"JA	c #010301",
"KA	c #010300",
"LA	c #0D1D05",
"MA	c #254E0E",
"NA	c #397415",
"OA	c #488C1C",
"PA	c #509225",
"QA	c #558832",
"RA	c #3F602B",
"SA	c #192A0F",
"TA	c #040702",
"UA	c #020500",
"VA	c #132807",
"WA	c #3E7A18",
"XA	c #5FB327",
"YA	c #6EC32D",
"ZA	c #76C42F",
"aA	c #7CCA3D",
"bA	c #8CCB5E",
"cA	c #8BBA6C",
"dA	c #5E8849",
"eA	c #1D3315",
"fA	c #102305",
"gA	c #3C7917",
"hA	c #69BA2A",
"iA	c #78CE32",
"jA	c #7DCE32",
"kA	c #8AB82D",
"lA	c #83C836",
"mA	c #86CE4A",
"nA	c #90C66B",
"oA	c #88B579",
"pA	c #426E34",
"qA	c #091803",
"rA	c #010200",
"sA	c #060E01",
"tA	c #26520D",
"uA	c #5AA923",
"vA	c #7FB92C",
"wA	c #82C331",
"xA	c #7DCE33",
"yA	c #87BC2E",
"zA	c #82C631",
"0A	c #85C035",
"1A	c #88BD49",
"2A	c #7DB462",
"3A	c #457F30",
"4A	c #1F4A0B",
"5A	c #12210B",
"6A	c #020301",
"7A	c #071103",
"8A	c #020401",
"9A	c #0B1D02",
"+A	c #347110",
"/A	c #67B929",
"AB	c #85B92D",
"BB	c #84C02F",
"CB	c #75CE32",
"DB	c #73C72F",
"EB	c #75C42E",
"FB	c #84BA2D",
"GB	c #81BC32",
"HB	c #65AE36",
"IB	c #3A7D1B",
"JB	c #41841C",
"KB	c #47702D",
"LB	c #1B2A11",
"MB	c #0A1604",
"NB	c #0E1908",
"OB	c #0E180A",
"PB	c #0F180B",
"QB	c #0F1A0A",
"RB	c #17310B",
"SB	c #234911",
"TB	c #0F1D08",
"UB	c #0D2303",
"VB	c #387A11",
"WB	c #69BE2B",
"XB	c #7ACC32",
"YB	c #71C42E",
"ZB	c #5BB124",
"aB	c #4FA11D",
"bB	c #52A51F",
"cB	c #6ABA2A",
"dB	c #5BAF24",
"eB	c #388014",
"fB	c #57A625",
"gB	c #6AB635",
"hB	c #4A8B21",
"iB	c #4A8A23",
"jB	c #6C9C49",
"kB	c #6E965B",
"lB	c #74985D",
"mB	c #709356",
"nB	c #446931",
"oB	c #4B7335",
"pB	c #2B3F20",
"qB	c #020402",
"rB	c #377912",
"sB	c #67BF2B",
"tB	c #6FC82F",
"uB	c #4D9D1C",
"vB	c #357C11",
"wB	c #4A981D",
"xB	c #58A926",
"yB	c #54A422",
"zB	c #61B728",
"0B	c #59AE22",
"1B	c #3C8614",
"2B	c #5CAF26",
"3B	c #6AC32C",
"4B	c #52A41F",
"5B	c #5DAF28",
"6B	c #7AC743",
"7B	c #7EC64C",
"8B	c #80C84D",
"9B	c #77B846",
"+B	c #447626",
"/B	c #467927",
"AC	c #2A4618",
"BC	c #6AC22C",
"CC	c #377F11",
"DC	c #2C6B12",
"EC	c #63A145",
"FC	c #76B450",
"GC	c #52962B",
"HC	c #5AAC25",
"IC	c #58AC22",
"JC	c #398213",
"KC	c #4FA01F",
"LC	c #539F21",
"MC	c #306411",
"NC	c #2A580F",
"OC	c #336315",
"PC	c #356515",
"QC	c #356615",
"RC	c #315E13",
"SC	c #295A0D",
"TC	c #336C12",
"UC	c #1A3609",
"VC	c #0D2203",
"WC	c #357610",
"XC	c #63B928",
"YC	c #67BD2B",
"ZC	c #327710",
"aC	c #2D6E13",
"bC	c #5F9F40",
"cC	c #6CA947",
"dC	c #498925",
"eC	c #56A523",
"fC	c #58AB21",
"gC	c #368111",
"hC	c #2C6D0E",
"iC	c #1E440A",
"jC	c #050B01",
"kC	c #020400",
"lC	c #0A1903",
"mC	c #132F06",
"nC	c #060F02",
"oC	c #0A1C01",
"pC	c #2B650C",
"qC	c #54A820",
"rC	c #63BB29",
"sC	c #3C8716",
"tC	c #296B0C",
"uC	c #3B8416",
"vC	c #418A19",
"wC	c #3D8316",
"xC	c #57A822",
"yC	c #337910",
"zC	c #0D2703",
"0C	c #010500",
"1C	c #040D00",
"2C	c #194206",
"3C	c #3A8414",
"4C	c #55A921",
"5C	c #4FA11E",
"6C	c #3A8213",
"7C	c #398212",
"8C	c #3E8915",
"9C	c #4C9C1C",
"+C	c #5AAE23",
"/C	c #4C9B1B",
"AD	c #28620B",
"BD	c #050E01",
"CD	c #000200",
"DD	c #071701",
"ED	c #1C4C07",
"FD	c #378013",
"GD	c #499B1B",
"HD	c #499B1A",
"ID	c #4FA21D",
"JD	c #54A920",
"KD	c #4E9E1D",
"LD	c #2F6C0E",
"MD	c #123005",
"ND	c #010400",
"OD	c #174006",
"PD	c #28660B",
"QD	c #347810",
"RD	c #408A17",
"SD	c #428E18",
"TD	c #3E8316",
"UD	c #2B610E",
"VD	c #102A04",
"WD	c #030B00",
"XD	c #091B01",
"YD	c #0E2603",
"ZD	c #132E05",
"aD	c #132E06",
"bD	c #102604",
"cD	c #091502",
"                BACACABA                                  ",
"            BADAEAFAGAHAIAJA                              ",
"          KALAMANAOAPAQARASATA                            ",
"        UAVAWAXAYAZAaAbAcAdAeAKA                          ",
"      KAfAgAhAiAjAkAlAmAnAoApAqArA                        ",
"      sAtAuAvAwAxAyAzA0A1A2A3A4A5A6A        BADA7A8A      ",
"    BA9A+A/AABBBCBDBEBFBGBHBIBJBKBLBMBNBOBPBQBRBSBTBBA    ",
"    BAUBVBWBXBYBZBaBbBcBDBdBeBfBgBhBiBjBkBlBmBnBoBpBqB    ",
"    BAUBrBsBtBuBvBwBxByBzB0B1B2B3B4B5B6B7B8B9B+B/BAC8A    ",
"    BAUBrBsBBCCCDCECFCGCHCICJCKCLCMCNCOCPCQCRCSCTCUCKA    ",
"    BAVCWCXCYCZCaCbCcCdCeCfCgChCiCjCKAKAJAKAkClCmCnC      ",
"    BAoCpCqCrCsCtCuCvCwCxCfCyCzC0C              BA        ",
"      1C2C3C4C5C6C7C8C9C+C/CADBD                          ",
"      CDDDEDFDGDHDIDJD0BKDLDMDND                          ",
"        KADDODPDQDRDSDTDUDVDDA                            ",
"          BAWDXDYDZDaDbDcDND                              ",
"              BArAKAKArA                                  ",
"                                                          "
};
