/* XPM */
static char *cano_3_xpm[] = {
"32 32 214 2",
"  	c None",
"BA	c #020700",
"CA	c #020800",
"DA	c #0F2406",
"EA	c #172212",
"FA	c #040703",
"GA	c #0D2106",
"HA	c #325123",
"IA	c #2B461D",
"JA	c #111C09",
"KA	c #010100",
"LA	c #070C06",
"MA	c #466136",
"NA	c #4E7C34",
"OA	c #3B6920",
"PA	c #22440C",
"QA	c #030800",
"RA	c #10160B",
"SA	c #59734B",
"TA	c #73A74E",
"UA	c #548B2F",
"VA	c #2D5F11",
"WA	c #1A3708",
"XA	c #040C00",
"YA	c #0D1709",
"ZA	c #13210A",
"aA	c #5B7D46",
"bA	c #7CB655",
"cA	c #74B843",
"dA	c #2D5512",
"eA	c #183806",
"fA	c #061201",
"gA	c #000200",
"hA	c #010300",
"iA	c #1F3215",
"jA	c #304225",
"kA	c #253A1D",
"lA	c #264120",
"mA	c #0F2008",
"nA	c #1B2814",
"oA	c #192E0C",
"pA	c #467925",
"qA	c #72B643",
"rA	c #6CB03D",
"sA	c #2D5413",
"tA	c #152A06",
"uA	c #010400",
"vA	c #071003",
"wA	c #3B6520",
"xA	c #557D3B",
"yA	c #79A55D",
"zA	c #739C65",
"0A	c #49743C",
"1A	c #295616",
"2A	c #326417",
"3A	c #3E6A22",
"4A	c #4C8C23",
"5A	c #539F22",
"6A	c #579C28",
"7A	c #264B0E",
"8A	c #0F2104",
"9A	c #091403",
"+A	c #3A7217",
"/A	c #62A330",
"AB	c #8ECF5D",
"BB	c #8AC75D",
"CB	c #8FC368",
"DB	c #70AC52",
"EB	c #408221",
"FB	c #40841A",
"GB	c #60AF2C",
"HB	c #64B929",
"IB	c #4D981C",
"JB	c #1B3D08",
"KB	c #0A1703",
"LB	c #040901",
"MB	c #29540E",
"NB	c #5FA925",
"OB	c #7FC936",
"PB	c #83C83B",
"QB	c #88C843",
"RB	c #88BE42",
"SB	c #76B637",
"TB	c #55A424",
"UB	c #418D17",
"VB	c #4F9E1F",
"WB	c #5BAF24",
"XB	c #387115",
"YB	c #071001",
"ZB	c #0F2105",
"aB	c #4D921D",
"bB	c #76CA2F",
"cB	c #85BD2D",
"dB	c #85C02F",
"eB	c #7FC32F",
"fB	c #83BB2D",
"gB	c #74C12F",
"hB	c #61B625",
"iB	c #4C9D1B",
"jB	c #438F18",
"kB	c #448F19",
"lB	c #1E4908",
"mB	c #1F400C",
"nB	c #63B427",
"oB	c #7ACE32",
"pB	c #7FC730",
"qB	c #7FC32E",
"rB	c #72C22D",
"sB	c #61AD23",
"tB	c #64B826",
"uB	c #5EB326",
"vB	c #58AB21",
"wB	c #489519",
"xB	c #347C0F",
"yB	c #163B06",
"zB	c #28500F",
"0B	c #68B629",
"1B	c #80BF2F",
"2B	c #80C530",
"3B	c #70CA2F",
"4B	c #56A920",
"5B	c #50A31E",
"6B	c #57A526",
"7B	c #57A02A",
"8B	c #56A423",
"9B	c #57A920",
"+B	c #469418",
"/B	c #22510A",
"AC	c #274F0E",
"BC	c #62A923",
"CC	c #81BC2D",
"DC	c #81C22F",
"EC	c #67BB29",
"FC	c #408E15",
"GC	c #4B9720",
"HC	c #71B04C",
"IC	c #5F9F3A",
"JC	c #4A9020",
"KC	c #54A420",
"LC	c #52A31E",
"MC	c #306B0E",
"NC	c #071601",
"OC	c #1B3C09",
"PC	c #4F941C",
"QC	c #75BA2A",
"RC	c #7ACC32",
"SC	c #5CB024",
"TC	c #347C10",
"UC	c #407E25",
"VC	c #62A043",
"WC	c #5A9936",
"XC	c #3E8517",
"YC	c #4F9E1D",
"ZC	c #56A820",
"aC	c #2F680F",
"bC	c #051101",
"cC	c #0C2102",
"dC	c #346E11",
"eC	c #5BAA23",
"fC	c #71CB2F",
"gC	c #61B727",
"hC	c #388011",
"iC	c #2D6D12",
"jC	c #418225",
"kC	c #3B8416",
"lC	c #3A8313",
"mC	c #53A51E",
"nC	c #27590D",
"oC	c #020900",
"pC	c #030C00",
"qC	c #183A05",
"rC	c #377513",
"sC	c #5CB125",
"tC	c #6BC52C",
"uC	c #56A621",
"vC	c #388213",
"wC	c #2B700C",
"xC	c #367E11",
"yC	c #449317",
"zC	c #53A91F",
"0C	c #418A16",
"1C	c #173507",
"2C	c #050E00",
"3C	c #1A3F07",
"4C	c #3E8116",
"5C	c #5DB124",
"6C	c #61B927",
"7C	c #4FA11F",
"8C	c #4A991A",
"9C	c #439317",
"+C	c #4A9A1A",
"/C	c #428D17",
"AD	c #214A0B",
"BD	c #041000",
"CD	c #1C4408",
"DD	c #387513",
"ED	c #4C9A1D",
"FD	c #4E9F1D",
"GD	c #459518",
"HD	c #3F8A16",
"ID	c #337510",
"JD	c #1C4209",
"KD	c #030900",
"LD	c #000100",
"MD	c #081801",
"ND	c #183C06",
"OD	c #1F4E09",
"PD	c #22520A",
"QD	c #28600D",
"RD	c #1C4B07",
"SD	c #122B04",
"TD	c #000300",
"UD	c #071502",
"VD	c #081E00",
"                                                                ",
"                                                                ",
"                                                                ",
"                                                                ",
"                                                                ",
"                                          BA                    ",
"                                        CADAEAFA                ",
"                                        GAHAIAJAKA              ",
"                                      LAMANAOAPAQA              ",
"                                    RASATAUAVAWAXA              ",
"                      YA          ZAaAbAcAdAeAfAgA              ",
"                hAiAjAkAlAmAXAnAoApAqArAsAtA  uA                ",
"              vAwAxAyAzA0A1A2A3A4A5A6A7A8A                      ",
"            9A+A/AABBBCBDBEBFBGBHBIBJBKB                        ",
"          LBMBNBOBPBQBRBSBTBUBVBWBXBYB                          ",
"          ZBaBbBcBdBeBfBgBhBiBjBkBlB                            ",
"          mBnBoBpBqBrBsBtBuBvBwBxByBgA                          ",
"          zB0B1B2B3B4B5B6B7B8B9B+B/BXA                          ",
"          ACBCCCDCECFCGCHCICJCKCLCMCNC                          ",
"          OCPCQCRCSCTCUCVCWCXCYCZCaCbC                          ",
"          cCdCeCfCgChCiCjCkClC5BmCnCoC                          ",
"          pCqCrCsCtCuCvCwCxCyCzC0C1CgA                          ",
"            2C3C4C5C6C7C8C9C+C/CADCA                            ",
"              BDCDDDEDFDGDHDIDJDKDLD                            ",
"                MDNDODPDQDRDSDTD                                ",
"                    UDVDpCNC                                    ",
"                        gA                                      ",
"                                                                ",
"                                                                ",
"                                                                ",
"                                                                ",
"                                                                "
};
