/* XPM */
static char *cano_0_xpm[] = {
"32 32 199 2",
"  	c None",
"BA	c #030601",
"CA	c #071202",
"DA	c #0A1803",
"EA	c #0A1903",
"FA	c #071401",
"GA	c #040B01",
"HA	c #000200",
"IA	c #000100",
"JA	c #081402",
"KA	c #23500C",
"LA	c #3A7A14",
"MA	c #3E8816",
"NA	c #3E8417",
"OA	c #327210",
"PA	c #245E0B",
"QA	c #113004",
"RA	c #030901",
"SA	c #0B1C03",
"TA	c #2A600C",
"UA	c #4E9C1D",
"VA	c #59AE22",
"WA	c #54A920",
"XA	c #4FA01D",
"YA	c #499B1A",
"ZA	c #49991B",
"aA	c #357D13",
"bA	c #173F05",
"cA	c #020801",
"dA	c #020401",
"eA	c #245809",
"fA	c #4C991B",
"gA	c #5AAC23",
"hA	c #4C9C1C",
"iA	c #3E8915",
"jA	c #398212",
"kA	c #3A8213",
"lA	c #4F9F1E",
"mA	c #55A721",
"nA	c #388014",
"oA	c #123004",
"pA	c #010300",
"qA	c #081702",
"rA	c #317510",
"sA	c #58A921",
"tA	c #57A822",
"uA	c #3D8316",
"vA	c #418A19",
"wA	c #3B8416",
"xA	c #296B0C",
"yA	c #3C8716",
"zA	c #63BB29",
"0A	c #54A620",
"1A	c #275D0B",
"2A	c #040C01",
"3A	c #0C1F04",
"4A	c #050B01",
"5A	c #010200",
"6A	c #132B06",
"7A	c #28650C",
"8A	c #367F11",
"9A	c #56A523",
"+A	c #498925",
"/A	c #6CA947",
"AB	c #5F9F40",
"BB	c #2D6E13",
"CB	c #327710",
"DB	c #67BD2B",
"EB	c #63B728",
"FB	c #316E0F",
"GB	c #060F01",
"HB	c #0E1C04",
"IB	c #316612",
"JB	c #25520B",
"KB	c #284D0F",
"LB	c #2A5111",
"MB	c #2A5011",
"NB	c #295011",
"OB	c #22470C",
"PB	c #29550F",
"QB	c #4F971F",
"RB	c #4F9E1F",
"SB	c #398013",
"TB	c #58AA22",
"UB	c #5AAC25",
"VB	c #52962B",
"WB	c #76B450",
"XB	c #63A145",
"YB	c #2C6B12",
"ZB	c #377F11",
"aB	c #6AC22C",
"bB	c #67BF2B",
"cB	c #337110",
"dB	c #17270D",
"eB	c #447525",
"fB	c #447626",
"gB	c #77B846",
"hB	c #80C84D",
"iB	c #7EC64C",
"jB	c #7AC743",
"kB	c #5DAF28",
"lB	c #52A21F",
"mB	c #6AC32C",
"nB	c #5CAF26",
"oB	c #3C8614",
"pB	c #61B728",
"qB	c #54A422",
"rB	c #58A926",
"sB	c #4A981D",
"tB	c #357C11",
"uB	c #4D9D1C",
"vB	c #6FC82F",
"wB	c #172211",
"xB	c #476D33",
"yB	c #40652F",
"zB	c #65854E",
"0B	c #678753",
"1B	c #628551",
"2B	c #608A41",
"3B	c #427A1F",
"4B	c #447F1F",
"5B	c #66B033",
"6B	c #57A425",
"7B	c #5BAF24",
"8B	c #73C72F",
"9B	c #6ABA2A",
"+B	c #52A51F",
"/B	c #4FA11D",
"AC	c #5BB124",
"BC	c #71C42E",
"CC	c #7ACC32",
"DC	c #69BC2B",
"EC	c #34720F",
"FC	c #050A03",
"GC	c #1B3A0D",
"HC	c #0E1F07",
"IC	c #050A04",
"JC	c #050803",
"KC	c #030701",
"LC	c #0C1408",
"MC	c #385924",
"NC	c #3F801C",
"OC	c #3A7D1B",
"PC	c #65AE36",
"QC	c #81BC32",
"RC	c #84BA2D",
"SC	c #75C42E",
"TC	c #75CE32",
"UC	c #84C02F",
"VC	c #85B92D",
"WC	c #67B729",
"XC	c #2F660E",
"YC	c #020501",
"ZC	c #070C04",
"aC	c #183909",
"bC	c #437D2E",
"cC	c #7DB462",
"dC	c #88BD49",
"eC	c #85C035",
"fC	c #82C631",
"gC	c #87BC2E",
"hC	c #7DCE33",
"iC	c #80C131",
"jC	c #7FB72C",
"kC	c #56A321",
"lC	c #1B3A09",
"mC	c #040901",
"nC	c #3C6430",
"oC	c #86B379",
"pC	c #90C66B",
"qC	c #86CE4A",
"rC	c #83C836",
"sC	c #8AB82D",
"tC	c #7DCE32",
"uC	c #78CC32",
"vC	c #67B62A",
"wC	c #326413",
"xC	c #060D02",
"yC	c #101C0C",
"zC	c #547A41",
"0C	c #89B86A",
"1C	c #8AC95E",
"2C	c #7CC83D",
"3C	c #76C22F",
"4C	c #6EC12D",
"5C	c #5DAD25",
"6C	c #326314",
"7C	c #070F02",
"8C	c #0B1207",
"9C	c #2E461F",
"+C	c #49752B",
"/C	c #488421",
"AD	c #417E1A",
"BD	c #306111",
"CD	c #183309",
"DD	c #040902",
"ED	c #040702",
"FD	c #050A02",
"GD	c #030501",
"                                                                ",
"                                                                ",
"                                                                ",
"                                                                ",
"                                                                ",
"                                                                ",
"                                                                ",
"                                                                ",
"                                    BACADAEAFAGAHA              ",
"                                IAJAKALAMANAOAPAQARA            ",
"                                SATAUAVAWAXAYAZAaAbAcA          ",
"                              dAeAfAgAhAiAjAkAlAmAnAoApA        ",
"                            IAqArAsAtAuAvAwAxAyAzA0A1A2A        ",
"          pA3A4A          5A6A7A8AsA9A+A/AABBBCBDBEBFBGB        ",
"          HBIBJBKBLBMBNBOBPBQBRBSBTBUBVBWBXBYBZBaBbBcBGB        ",
"          dBeBfBgBhBiBjBkBlBmBnBoBVApBqBrBsBtBuBvBbBcBGB        ",
"          wBxByBzB0B1B2B3B4B5B6BnA7B8B9B+B/BACBCCCDCECGB        ",
"          FCGCHCICJCJCJCKCLCMCNCOCPCQCRCSC8BTCUCVCWCXCGA        ",
"            YCIA            ZCaCbCcCdCeCfCgChCiCjCkClCpA        ",
"                              mCnCoCpCqCrCsCtCuCvCwCxC          ",
"                                yCzC0C1C2C3C4C5C6C7C            ",
"                                IA8C9C+C/CADBDCDDD              ",
"                                    5AEDFDFDGDIA                ",
"                                                                ",
"                                                                ",
"                                                                ",
"                                                                ",
"                                                                ",
"                                                                ",
"                                                                ",
"                                                                ",
"                                                                "
};
