/* XPM */
static char *cano_7_xpm[] = {
"32 32 215 2",
"  	c None",
"BA	c #071202",
"CA	c #061201",
"DA	c #0D1E05",
"EA	c #142C07",
"FA	c #193608",
"GA	c #397016",
"HA	c #305A12",
"IA	c #2B5610",
"JA	c #234D0C",
"KA	c #112804",
"LA	c #1E3C0B",
"MA	c #3A7216",
"NA	c #59A324",
"OA	c #60AF27",
"PA	c #6BBD2B",
"QA	c #639F23",
"RA	c #4C8A1B",
"SA	c #30670F",
"TA	c #153404",
"UA	c #030A00",
"VA	c #223B12",
"WA	c #4F8E25",
"XA	c #6DB72D",
"YA	c #7FC82E",
"ZA	c #7CD032",
"aA	c #7EC330",
"bA	c #83BF2D",
"cA	c #77C02C",
"dA	c #57A321",
"eA	c #326A10",
"fA	c #102903",
"gA	c #111B0B",
"hA	c #517E34",
"iA	c #81C54E",
"jA	c #80CC37",
"kA	c #88BD2D",
"lA	c #81C630",
"mA	c #7ECB32",
"nA	c #82BD2D",
"oA	c #7BCD32",
"pA	c #6DC62D",
"qA	c #52A01F",
"rA	c #2E640E",
"sA	c #102804",
"tA	c #020600",
"uA	c #273C1C",
"vA	c #82B264",
"wA	c #8DCE5C",
"xA	c #84C739",
"yA	c #83C12E",
"zA	c #79C72F",
"0A	c #6BC12B",
"1A	c #66BB28",
"2A	c #5CAE23",
"3A	c #67C02A",
"4A	c #6BC52C",
"5A	c #4E981D",
"6A	c #25540A",
"7A	c #081800",
"8A	c #000200",
"9A	c #3C592E",
"+A	c #89B775",
"/A	c #8CC65D",
"AB	c #84BF36",
"BB	c #80BD2D",
"CB	c #68BC29",
"DB	c #4EA11C",
"EB	c #429015",
"FB	c #3B8415",
"GB	c #479619",
"HB	c #62B728",
"IB	c #61B726",
"JB	c #3A7C13",
"KB	c #102C03",
"LB	c #000400",
"MB	c #325128",
"NB	c #6EA05D",
"OB	c #80B753",
"PB	c #83BC34",
"QB	c #79C02D",
"RB	c #56A720",
"SB	c #51A320",
"TB	c #4F922B",
"UB	c #317118",
"VB	c #2F730F",
"WB	c #4A991D",
"XB	c #60B726",
"YB	c #418C17",
"ZB	c #143704",
"aB	c #1D3B13",
"bB	c #488432",
"cB	c #599E2F",
"dB	c #6DB62B",
"eB	c #6DC12B",
"fB	c #56A823",
"gB	c #5BA330",
"hB	c #6DAA4C",
"iB	c #539236",
"jB	c #2B6D0E",
"kB	c #388213",
"lB	c #55A621",
"mB	c #3F8B16",
"nB	c #133503",
"oB	c #010100",
"pB	c #1A370B",
"qB	c #3A7C1A",
"rB	c #428A1B",
"sB	c #53A61F",
"tB	c #5FB525",
"uB	c #57A924",
"vB	c #5C9D35",
"wB	c #639F3F",
"xB	c #488E25",
"yB	c #317710",
"zB	c #3B8413",
"0B	c #4D9E1C",
"1B	c #347B11",
"2B	c #0D2603",
"3B	c #34571F",
"4B	c #569F28",
"5B	c #48961B",
"6B	c #428F16",
"7B	c #51A11E",
"8B	c #58AA23",
"9B	c #4D9721",
"+B	c #488D21",
"/B	c #3E8A15",
"AC	c #398312",
"BC	c #49991A",
"CC	c #439117",
"DC	c #235D0A",
"EC	c #051000",
"FC	c #0F1A08",
"GC	c #457D21",
"HC	c #65B82C",
"IC	c #5DB025",
"JC	c #47961A",
"KC	c #418E15",
"LC	c #54A41F",
"MC	c #58A922",
"NC	c #4B9A1A",
"OC	c #479719",
"PC	c #53A71E",
"QC	c #4A9B1A",
"RC	c #347411",
"SC	c #0D2303",
"TC	c #000100",
"UC	c #162010",
"VC	c #427124",
"WC	c #55A225",
"XC	c #55A521",
"YC	c #4F971E",
"ZC	c #316C11",
"aC	c #2C6D0C",
"bC	c #3E8815",
"cC	c #4E9E1B",
"dC	c #53A41F",
"eC	c #56AB20",
"fC	c #49951A",
"gC	c #387A13",
"hC	c #102605",
"iC	c #010400",
"jC	c #232E1D",
"kC	c #5F8249",
"lC	c #6FB73E",
"mC	c #4F9820",
"nC	c #27520E",
"oC	c #264A0E",
"pC	c #153805",
"qC	c #091D01",
"rC	c #204D09",
"sC	c #326D0F",
"tC	c #306B0F",
"uC	c #316611",
"vC	c #2C600E",
"wC	c #0B1B03",
"xC	c #000300",
"yC	c #030D00",
"zC	c #28371F",
"0C	c #678854",
"1C	c #7FC052",
"2C	c #63A636",
"3C	c #254A0E",
"4C	c #0F2205",
"5C	c #071700",
"6C	c #071400",
"7C	c #122B05",
"8C	c #0D2403",
"9C	c #010300",
"+C	c #122B09",
"/C	c #27411B",
"AD	c #587C42",
"BD	c #7AB84D",
"CD	c #5E9B34",
"DD	c #25480E",
"ED	c #0D1A05",
"FD	c #020501",
"GD	c #1C3311",
"HD	c #436A2F",
"ID	c #4A7D2B",
"JD	c #508928",
"KD	c #1F400A",
"LD	c #081102",
"MD	c #010301",
"ND	c #1D2A15",
"OD	c #30531B",
"PD	c #356917",
"QD	c #193D05",
"RD	c #030700",
"SD	c #162909",
"TD	c #1F4509",
"UD	c #081701",
"VD	c #010500",
"WD	c #010600",
"                                                                ",
"                                                                ",
"                                                                ",
"                                                                ",
"                                                                ",
"                                                                ",
"                                  BA  CADA                      ",
"                                EAFAGAHAIAJAKA                  ",
"                              LAMANAOAPAQARASATAUA              ",
"                            VAWAXAYAZAaAbAcAdAeAfA              ",
"                          gAhAiAjAkAlAmAnAoApAqArAsAtA          ",
"                          uAvAwAxAyAzA0A1A2A3A4A5A6A7A          ",
"                        8A9A+A/AABBBCBDBEBFBGBHBIBJBKB          ",
"                        LBMBNBOBPBQBRBSBTBUBVBWBXBYBZB          ",
"                          aBbBcBdBeBfBgBhBiBjBkBlBmBnB          ",
"                        oBpBqBrBsBtBuBvBwBxByBzB0B1B2B          ",
"                          3B4B5B6B7B8B9B+B/BACBCCCDCEC          ",
"                        FCGCHCICJCKCLCMCNCOCPCQCRCSCTC          ",
"                      UCVCWCXCYCZCaCbCcCdCeCfCgChCiC            ",
"                    jCkClCmCnCoCpCqCrCsCtCuCvCwCiC              ",
"            TCxCyCzC0C1C2C3C4C    LB5C6C7C8CtA                  ",
"            9C+C/CADBDCDDDED                                    ",
"            FDGDHDIDJDKDLD                                      ",
"            MDNDODPDQDRD                                        ",
"              FDSDTDUD                                          ",
"                VDLBWD                                          ",
"                                                                ",
"                                                                ",
"                                                                ",
"                                                                ",
"                                                                ",
"                                                                "
};
