/* XPM */
static char *cano_1_xpm[] = {
"32 32 215 2",
"  	c None",
"BA	c #010500",
"CA	c #000400",
"DA	c #010600",
"EA	c #020501",
"FA	c #162909",
"GA	c #1F4509",
"HA	c #081701",
"IA	c #010301",
"JA	c #1D2A15",
"KA	c #30531B",
"LA	c #356917",
"MA	c #193D05",
"NA	c #030700",
"OA	c #1C3311",
"PA	c #436A2F",
"QA	c #4A7D2B",
"RA	c #508928",
"SA	c #1F400A",
"TA	c #081102",
"UA	c #010300",
"VA	c #122B09",
"WA	c #27411B",
"XA	c #587C42",
"YA	c #7AB84D",
"ZA	c #5E9B34",
"aA	c #25480E",
"bA	c #0D1A05",
"cA	c #000100",
"dA	c #000300",
"eA	c #030D00",
"fA	c #28371F",
"gA	c #678854",
"hA	c #7FC052",
"iA	c #63A636",
"jA	c #254A0E",
"kA	c #0F2205",
"lA	c #071700",
"mA	c #071400",
"nA	c #122B05",
"oA	c #0D2403",
"pA	c #020600",
"qA	c #232E1D",
"rA	c #5F8249",
"sA	c #6FB73E",
"tA	c #4F9820",
"uA	c #27520E",
"vA	c #264A0E",
"wA	c #153805",
"xA	c #091D01",
"yA	c #204D09",
"zA	c #326D0F",
"0A	c #306B0F",
"1A	c #316611",
"2A	c #2C600E",
"3A	c #0B1B03",
"4A	c #010400",
"5A	c #162010",
"6A	c #427124",
"7A	c #55A225",
"8A	c #55A521",
"9A	c #4F971E",
"+A	c #316C11",
"/A	c #2C6D0C",
"AB	c #3E8815",
"BB	c #4E9E1B",
"CB	c #53A41F",
"DB	c #56AB20",
"EB	c #49951A",
"FB	c #387A13",
"GB	c #102605",
"HB	c #0F1A08",
"IB	c #457D21",
"JB	c #65B82C",
"KB	c #5DB025",
"LB	c #47961A",
"MB	c #418E15",
"NB	c #54A41F",
"OB	c #58A922",
"PB	c #4B9A1A",
"QB	c #479719",
"RB	c #53A71E",
"SB	c #4A9B1A",
"TB	c #347411",
"UB	c #0D2303",
"VB	c #34571F",
"WB	c #569F28",
"XB	c #48961B",
"YB	c #428F16",
"ZB	c #51A11E",
"aB	c #58AA23",
"bB	c #4D9721",
"cB	c #488D21",
"dB	c #3E8A15",
"eB	c #398312",
"fB	c #49991A",
"gB	c #439117",
"hB	c #235D0A",
"iB	c #051000",
"jB	c #010100",
"kB	c #1A370B",
"lB	c #3A7C1A",
"mB	c #428A1B",
"nB	c #53A61F",
"oB	c #5FB525",
"pB	c #57A924",
"qB	c #5C9D35",
"rB	c #639F3F",
"sB	c #488E25",
"tB	c #317710",
"uB	c #3B8413",
"vB	c #4D9E1C",
"wB	c #347B11",
"xB	c #0D2603",
"yB	c #1D3B13",
"zB	c #488432",
"0B	c #599E2F",
"1B	c #6DB62B",
"2B	c #6DC12B",
"3B	c #56A823",
"4B	c #5BA330",
"5B	c #6DAA4C",
"6B	c #539236",
"7B	c #2B6D0E",
"8B	c #388213",
"9B	c #55A621",
"+B	c #3F8B16",
"/B	c #133503",
"AC	c #325128",
"BC	c #6EA05D",
"CC	c #80B753",
"DC	c #83BC34",
"EC	c #79C02D",
"FC	c #56A720",
"GC	c #51A320",
"HC	c #4F922B",
"IC	c #317118",
"JC	c #2F730F",
"KC	c #4A991D",
"LC	c #60B726",
"MC	c #418C17",
"NC	c #143704",
"OC	c #000200",
"PC	c #3C592E",
"QC	c #89B775",
"RC	c #8CC65D",
"SC	c #84BF36",
"TC	c #80BD2D",
"UC	c #68BC29",
"VC	c #4EA11C",
"WC	c #429015",
"XC	c #3B8415",
"YC	c #479619",
"ZC	c #62B728",
"aC	c #61B726",
"bC	c #3A7C13",
"cC	c #102C03",
"dC	c #273C1C",
"eC	c #82B264",
"fC	c #8DCE5C",
"gC	c #84C739",
"hC	c #83C12E",
"iC	c #79C72F",
"jC	c #6BC12B",
"kC	c #66BB28",
"lC	c #5CAE23",
"mC	c #67C02A",
"nC	c #6BC52C",
"oC	c #4E981D",
"pC	c #25540A",
"qC	c #081800",
"rC	c #111B0B",
"sC	c #517E34",
"tC	c #81C54E",
"uC	c #80CC37",
"vC	c #88BD2D",
"wC	c #81C630",
"xC	c #7ECB32",
"yC	c #82BD2D",
"zC	c #7BCD32",
"0C	c #6DC62D",
"1C	c #52A01F",
"2C	c #2E640E",
"3C	c #102804",
"4C	c #223B12",
"5C	c #4F8E25",
"6C	c #6DB72D",
"7C	c #7FC82E",
"8C	c #7CD032",
"9C	c #7EC330",
"+C	c #83BF2D",
"/C	c #77C02C",
"AD	c #57A321",
"BD	c #326A10",
"CD	c #102903",
"DD	c #1E3C0B",
"ED	c #3A7216",
"FD	c #59A324",
"GD	c #60AF27",
"HD	c #6BBD2B",
"ID	c #639F23",
"JD	c #4C8A1B",
"KD	c #30670F",
"LD	c #153404",
"MD	c #030A00",
"ND	c #142C07",
"OD	c #193608",
"PD	c #397016",
"QD	c #305A12",
"RD	c #2B5610",
"SD	c #234D0C",
"TD	c #112804",
"UD	c #071202",
"VD	c #061201",
"WD	c #0D1E05",
"                                                                ",
"                                                                ",
"                                                                ",
"                                                                ",
"                                                                ",
"                                                                ",
"                BACADA                                          ",
"              EAFAGAHA                                          ",
"            IAJAKALAMANA                                        ",
"            EAOAPAQARASATA                                      ",
"            UAVAWAXAYAZAaAbA                                    ",
"            cAdAeAfAgAhAiAjAkA    CAlAmAnAoApA                  ",
"                    qArAsAtAuAvAwAxAyAzA0A1A2A3A4A              ",
"                      5A6A7A8A9A+A/AABBBCBDBEBFBGB4A            ",
"                        HBIBJBKBLBMBNBOBPBQBRBSBTBUBcA          ",
"                          VBWBXBYBZBaBbBcBdBeBfBgBhBiB          ",
"                        jBkBlBmBnBoBpBqBrBsBtBuBvBwBxB          ",
"                          yBzB0B1B2B3B4B5B6B7B8B9B+B/B          ",
"                        CAACBCCCDCECFCGCHCICJCKCLCMCNC          ",
"                        OCPCQCRCSCTCUCVCWCXCYCZCaCbCcC          ",
"                          dCeCfCgChCiCjCkClCmCnCoCpCqC          ",
"                          rCsCtCuCvCwCxCyCzC0C1C2C3CpA          ",
"                            4C5C6C7C8C9C+C/CADBDCD              ",
"                              DDEDFDGDHDIDJDKDLDMD              ",
"                                NDODPDQDRDSDTD                  ",
"                                  UD  VDWD                      ",
"                                                                ",
"                                                                ",
"                                                                ",
"                                                                ",
"                                                                ",
"                                                                "
};
