/* XPM */
static char *cano_2_xpm[] = {
"18 29 221 2",
"  	c None",
"BA	c #000100",
"CA	c #020402",
"DA	c #020401",
"EA	c #010300",
"FA	c #0F1D08",
"GA	c #2B3F20",
"HA	c #2A4618",
"IA	c #1A3609",
"JA	c #060F02",
"KA	c #071103",
"LA	c #234911",
"MA	c #4B7335",
"NA	c #467927",
"OA	c #336C12",
"PA	c #132F06",
"QA	c #030801",
"RA	c #17310B",
"SA	c #446931",
"TA	c #447626",
"UA	c #295A0D",
"VA	c #0A1903",
"WA	c #0F1A0A",
"XA	c #709356",
"YA	c #77B846",
"ZA	c #315E13",
"aA	c #020400",
"bA	c #0F180B",
"cA	c #74985D",
"dA	c #80C84D",
"eA	c #356615",
"fA	c #0E180A",
"gA	c #6E965B",
"hA	c #7EC64C",
"iA	c #356515",
"jA	c #010301",
"kA	c #0E1908",
"lA	c #6C9C49",
"mA	c #7AC743",
"nA	c #336315",
"oA	c #0A1604",
"pA	c #4A8A23",
"qA	c #5DAF28",
"rA	c #2A580F",
"sA	c #020301",
"tA	c #1B2A11",
"uA	c #4A8B21",
"vA	c #52A41F",
"wA	c #306411",
"xA	c #050B01",
"yA	c #010200",
"zA	c #12210B",
"0A	c #47702D",
"1A	c #6AB635",
"2A	c #6AC32C",
"3A	c #539F21",
"4A	c #1E440A",
"5A	c #010500",
"6A	c #091803",
"7A	c #1F4A0B",
"8A	c #41841C",
"9A	c #57A625",
"+A	c #5CAF26",
"/A	c #4FA01F",
"AB	c #2C6D0E",
"BB	c #0D2703",
"CB	c #050E01",
"DB	c #010400",
"EB	c #040702",
"FB	c #1D3315",
"GB	c #426E34",
"HB	c #457F30",
"IB	c #3A7D1B",
"JB	c #388014",
"KB	c #3C8614",
"LB	c #398213",
"MB	c #368111",
"NB	c #337910",
"OB	c #28620B",
"PB	c #123005",
"QB	c #192A0F",
"RB	c #5E8849",
"SB	c #88B579",
"TB	c #7DB462",
"UB	c #65AE36",
"VB	c #5BAF24",
"WB	c #59AE22",
"XB	c #58AC22",
"YB	c #58AB21",
"ZB	c #4C9B1B",
"aB	c #2F6C0E",
"bB	c #102A04",
"cB	c #070C03",
"dB	c #3F602B",
"eB	c #8BBA6C",
"fB	c #90C66B",
"gB	c #88BD49",
"hB	c #81BC32",
"iB	c #73C72F",
"jB	c #61B728",
"kB	c #5AAC25",
"lB	c #56A523",
"mB	c #57A822",
"nB	c #5AAE23",
"oB	c #4E9E1D",
"pB	c #2B610E",
"qB	c #091502",
"rB	c #0E1A06",
"sB	c #558832",
"tB	c #8CCB5E",
"uB	c #86CE4A",
"vB	c #85C035",
"wB	c #84BA2D",
"xB	c #6ABA2A",
"yB	c #54A422",
"zB	c #52962B",
"0B	c #498925",
"1B	c #3D8316",
"2B	c #4C9C1C",
"3B	c #3E8316",
"4B	c #102604",
"5B	c #010100",
"6B	c #102006",
"7B	c #509225",
"8B	c #7CCA3D",
"9B	c #83C836",
"+B	c #82C631",
"/B	c #75C42E",
"AC	c #52A51F",
"BC	c #58A926",
"CC	c #76B450",
"DC	c #6CA947",
"EC	c #418A19",
"FC	c #3E8915",
"GC	c #54A920",
"HC	c #428E18",
"IC	c #132E06",
"JC	c #0E1F05",
"KC	c #488C1C",
"LC	c #76C42F",
"MC	c #8AB82D",
"NC	c #87BC2E",
"OC	c #4FA11D",
"PC	c #4A981D",
"QC	c #63A145",
"RC	c #5F9F40",
"SC	c #3B8416",
"TC	c #398212",
"UC	c #4FA21D",
"VC	c #408A17",
"WC	c #132E05",
"XC	c #091403",
"YC	c #397415",
"ZC	c #6EC32D",
"aC	c #7DCE32",
"bC	c #7DCE33",
"cC	c #75CE32",
"dC	c #5BB124",
"eC	c #357C11",
"fC	c #2C6B12",
"gC	c #2D6E13",
"hC	c #296B0C",
"iC	c #3A8213",
"jC	c #499B1A",
"kC	c #347810",
"lC	c #0E2603",
"mC	c #254E0E",
"nC	c #5FB327",
"oC	c #78CE32",
"pC	c #82C331",
"qC	c #84C02F",
"rC	c #71C42E",
"sC	c #4D9D1C",
"tC	c #377F11",
"uC	c #327710",
"vC	c #3C8716",
"wC	c #4FA11E",
"xC	c #499B1B",
"yC	c #28660B",
"zC	c #091B01",
"0C	c #0D1D05",
"1C	c #3E7A18",
"2C	c #69BA2A",
"3C	c #7FB92C",
"4C	c #85B92D",
"5C	c #7ACC32",
"6C	c #6FC82F",
"7C	c #6AC22C",
"8C	c #67BD2B",
"9C	c #63BB29",
"+C	c #55A921",
"/C	c #378013",
"AD	c #174006",
"BD	c #030B00",
"CD	c #132807",
"DD	c #3C7917",
"ED	c #5AA923",
"FD	c #67B929",
"GD	c #69BE2B",
"HD	c #67BF2B",
"ID	c #63B928",
"JD	c #54A820",
"KD	c #3A8414",
"LD	c #1C4C07",
"MD	c #071701",
"ND	c #020500",
"OD	c #102305",
"PD	c #26520D",
"QD	c #347110",
"RD	c #387A11",
"SD	c #377912",
"TD	c #357610",
"UD	c #2B650C",
"VD	c #194206",
"WD	c #060E01",
"XD	c #0B1D02",
"YD	c #0D2303",
"ZD	c #0D2203",
"aD	c #0A1C01",
"bD	c #040D00",
"cD	c #000200",
"                                    ",
"                                    ",
"            BACADAEA                ",
"          DAFAGAHAIAJA              ",
"          KALAMANAOAPABA            ",
"          QARASATAUAVA              ",
"          BAWAXAYAZAaA              ",
"            bAcAdAeAEA              ",
"            fAgAhAiAjA              ",
"            kAlAmAnAEA              ",
"            oApAqArAEA              ",
"          sAtAuAvAwAxA              ",
"        yAzA0A1A2A3A4A5A            ",
"      EA6A7A8A9A+A/AABBBCBDB        ",
"    EBFBGBHBIBJBKBLBMBNBOBPBQA      ",
"  jAQBRBSBTBUBVBWBXBYBYBZBaBbBDB    ",
"  cBdBeBfBgBhBiBjBkBlBmBnBoBpBqB    ",
"BArBsBtBuBvBwBxByBzB0B1B2BWB3B4ByA  ",
"5B6B7B8B9B+B/BACBCCCDCECFCGCHCICEA  ",
"5BJCKCLCMCNCiBOCPCQCRCSCTCUCVCWCEA  ",
"BAXCYCZCaCbCcCdCeCfCgChCiCjCkClCyA  ",
"  QAmCnCoCpCqCrCsCtCuCvCwCxCyCzCBA  ",
"  BA0C1C2C3C4C5C6C7C8C9C+C/CADBD    ",
"    EACDDDEDFDGDHDHDIDJDKDLDMDBA    ",
"      NDODPDQDRDSDSDTDUDVDMDEA      ",
"        EAWDXDYDYDYDZDaDbDcD        ",
"            BABABABABABA            ",
"                                    ",
"                                    "
};
