/* XPM */
static char *cano_5_xpm[] = {
"32 32 215 2",
"  	c None",
"BA	c #0D1E05",
"CA	c #061201",
"DA	c #071202",
"EA	c #112804",
"FA	c #234D0C",
"GA	c #2B5610",
"HA	c #305A12",
"IA	c #397016",
"JA	c #193608",
"KA	c #142C07",
"LA	c #030A00",
"MA	c #153404",
"NA	c #30670F",
"OA	c #4C8A1B",
"PA	c #639F23",
"QA	c #6BBD2B",
"RA	c #60AF27",
"SA	c #59A324",
"TA	c #3A7216",
"UA	c #1E3C0B",
"VA	c #102903",
"WA	c #326A10",
"XA	c #57A321",
"YA	c #77C02C",
"ZA	c #83BF2D",
"aA	c #7EC330",
"bA	c #7CD032",
"cA	c #7FC82E",
"dA	c #6DB72D",
"eA	c #4F8E25",
"fA	c #223B12",
"gA	c #020600",
"hA	c #102804",
"iA	c #2E640E",
"jA	c #52A01F",
"kA	c #6DC62D",
"lA	c #7BCD32",
"mA	c #82BD2D",
"nA	c #7ECB32",
"oA	c #81C630",
"pA	c #88BD2D",
"qA	c #80CC37",
"rA	c #81C54E",
"sA	c #517E34",
"tA	c #111B0B",
"uA	c #081800",
"vA	c #25540A",
"wA	c #4E981D",
"xA	c #6BC52C",
"yA	c #67C02A",
"zA	c #5CAE23",
"0A	c #66BB28",
"1A	c #6BC12B",
"2A	c #79C72F",
"3A	c #83C12E",
"4A	c #84C739",
"5A	c #8DCE5C",
"6A	c #82B264",
"7A	c #273C1C",
"8A	c #102C03",
"9A	c #3A7C13",
"+A	c #61B726",
"/A	c #62B728",
"AB	c #479619",
"BB	c #3B8415",
"CB	c #429015",
"DB	c #4EA11C",
"EB	c #68BC29",
"FB	c #80BD2D",
"GB	c #84BF36",
"HB	c #8CC65D",
"IB	c #89B775",
"JB	c #3C592E",
"KB	c #000200",
"LB	c #143704",
"MB	c #418C17",
"NB	c #60B726",
"OB	c #4A991D",
"PB	c #2F730F",
"QB	c #317118",
"RB	c #4F922B",
"SB	c #51A320",
"TB	c #56A720",
"UB	c #79C02D",
"VB	c #83BC34",
"WB	c #80B753",
"XB	c #6EA05D",
"YB	c #325128",
"ZB	c #000400",
"aB	c #133503",
"bB	c #3F8B16",
"cB	c #55A621",
"dB	c #388213",
"eB	c #2B6D0E",
"fB	c #539236",
"gB	c #6DAA4C",
"hB	c #5BA330",
"iB	c #56A823",
"jB	c #6DC12B",
"kB	c #6DB62B",
"lB	c #599E2F",
"mB	c #488432",
"nB	c #1D3B13",
"oB	c #0D2603",
"pB	c #347B11",
"qB	c #4D9E1C",
"rB	c #3B8413",
"sB	c #317710",
"tB	c #488E25",
"uB	c #639F3F",
"vB	c #5C9D35",
"wB	c #57A924",
"xB	c #5FB525",
"yB	c #53A61F",
"zB	c #428A1B",
"0B	c #3A7C1A",
"1B	c #1A370B",
"2B	c #010100",
"3B	c #051000",
"4B	c #235D0A",
"5B	c #439117",
"6B	c #49991A",
"7B	c #398312",
"8B	c #3E8A15",
"9B	c #488D21",
"+B	c #4D9721",
"/B	c #58AA23",
"AC	c #51A11E",
"BC	c #428F16",
"CC	c #48961B",
"DC	c #569F28",
"EC	c #34571F",
"FC	c #000100",
"GC	c #0D2303",
"HC	c #347411",
"IC	c #4A9B1A",
"JC	c #53A71E",
"KC	c #479719",
"LC	c #4B9A1A",
"MC	c #58A922",
"NC	c #54A41F",
"OC	c #418E15",
"PC	c #47961A",
"QC	c #5DB025",
"RC	c #65B82C",
"SC	c #457D21",
"TC	c #0F1A08",
"UC	c #010400",
"VC	c #102605",
"WC	c #387A13",
"XC	c #49951A",
"YC	c #56AB20",
"ZC	c #53A41F",
"aC	c #4E9E1B",
"bC	c #3E8815",
"cC	c #2C6D0C",
"dC	c #316C11",
"eC	c #4F971E",
"fC	c #55A521",
"gC	c #55A225",
"hC	c #427124",
"iC	c #162010",
"jC	c #0B1B03",
"kC	c #2C600E",
"lC	c #316611",
"mC	c #306B0F",
"nC	c #326D0F",
"oC	c #204D09",
"pC	c #091D01",
"qC	c #153805",
"rC	c #264A0E",
"sC	c #27520E",
"tC	c #4F9820",
"uC	c #6FB73E",
"vC	c #5F8249",
"wC	c #232E1D",
"xC	c #0D2403",
"yC	c #122B05",
"zC	c #071400",
"0C	c #071700",
"1C	c #0F2205",
"2C	c #254A0E",
"3C	c #63A636",
"4C	c #7FC052",
"5C	c #678854",
"6C	c #28371F",
"7C	c #030D00",
"8C	c #000300",
"9C	c #0D1A05",
"+C	c #25480E",
"/C	c #5E9B34",
"AD	c #7AB84D",
"BD	c #587C42",
"CD	c #27411B",
"DD	c #122B09",
"ED	c #010300",
"FD	c #081102",
"GD	c #1F400A",
"HD	c #508928",
"ID	c #4A7D2B",
"JD	c #436A2F",
"KD	c #1C3311",
"LD	c #020501",
"MD	c #030700",
"ND	c #193D05",
"OD	c #356917",
"PD	c #30531B",
"QD	c #1D2A15",
"RD	c #010301",
"SD	c #081701",
"TD	c #1F4509",
"UD	c #162909",
"VD	c #010600",
"WD	c #010500",
"                                                                ",
"                                                                ",
"                                                                ",
"                                                                ",
"                                                                ",
"                                                                ",
"                      BACA  DA                                  ",
"                  EAFAGAHAIAJAKA                                ",
"              LAMANAOAPAQARASATAUA                              ",
"              VAWAXAYAZAaAbAcAdAeAfA                            ",
"          gAhAiAjAkAlAmAnAoApAqArAsAtA                          ",
"          uAvAwAxAyAzA0A1A2A3A4A5A6A7A                          ",
"          8A9A+A/AABBBCBDBEBFBGBHBIBJBKB                        ",
"          LBMBNBOBPBQBRBSBTBUBVBWBXBYBZB                        ",
"          aBbBcBdBeBfBgBhBiBjBkBlBmBnB                          ",
"          oBpBqBrBsBtBuBvBwBxByBzB0B1B2B                        ",
"          3B4B5B6B7B8B9B+B/BACBCCCDCEC                          ",
"          FCGCHCICJCKCLCMCNCOCPCQCRCSCTC                        ",
"            UCVCWCXCYCZCaCbCcCdCeCfCgChCiC                      ",
"              UCjCkClCmCnCoCpCqCrCsCtCuCvCwC                    ",
"                  gAxCyCzC0CZB    1C2C3C4C5C6C7C8CFC            ",
"                                    9C+C/CADBDCDDDED            ",
"                                      FDGDHDIDJDKDLD            ",
"                                        MDNDODPDQDRD            ",
"                                          SDTDUDLD              ",
"                                          VDZBWD                ",
"                                                                ",
"                                                                ",
"                                                                ",
"                                                                ",
"                                                                ",
"                                                                "
};
