/* XPM */
static char *cano_left_xpm[] = {
"29 18 221 2",
"  	c None",
"BA	c #010200",
"CA	c #010300",
"DA	c #000100",
"EA	c #010400",
"FA	c #091502",
"GA	c #102604",
"HA	c #132E06",
"IA	c #132E05",
"JA	c #0E2603",
"KA	c #091B01",
"LA	c #030B00",
"MA	c #030801",
"NA	c #102A04",
"OA	c #2B610E",
"PA	c #3E8316",
"QA	c #428E18",
"RA	c #408A17",
"SA	c #347810",
"TA	c #28660B",
"UA	c #174006",
"VA	c #071701",
"WA	c #123005",
"XA	c #2F6C0E",
"YA	c #4E9E1D",
"ZA	c #59AE22",
"aA	c #54A920",
"bA	c #4FA21D",
"cA	c #499B1A",
"dA	c #499B1B",
"eA	c #378013",
"fA	c #1C4C07",
"gA	c #000200",
"hA	c #050E01",
"iA	c #28620B",
"jA	c #4C9B1B",
"kA	c #5AAE23",
"lA	c #4C9C1C",
"mA	c #3E8915",
"nA	c #398212",
"oA	c #3A8213",
"pA	c #4FA11E",
"qA	c #55A921",
"rA	c #3A8414",
"sA	c #194206",
"tA	c #040D00",
"uA	c #010500",
"vA	c #0D2703",
"wA	c #337910",
"xA	c #58AB21",
"yA	c #57A822",
"zA	c #3D8316",
"0A	c #418A19",
"1A	c #3B8416",
"2A	c #296B0C",
"3A	c #3C8716",
"4A	c #63BB29",
"5A	c #54A820",
"6A	c #2B650C",
"7A	c #0A1C01",
"8A	c #060F02",
"9A	c #132F06",
"+A	c #0A1903",
"/A	c #020400",
"AB	c #010301",
"BB	c #050B01",
"CB	c #1E440A",
"DB	c #2C6D0E",
"EB	c #368111",
"FB	c #56A523",
"GB	c #498925",
"HB	c #6CA947",
"IB	c #5F9F40",
"JB	c #2D6E13",
"KB	c #327710",
"LB	c #67BD2B",
"MB	c #63B928",
"NB	c #357610",
"OB	c #0D2203",
"PB	c #1A3609",
"QB	c #336C12",
"RB	c #295A0D",
"SB	c #315E13",
"TB	c #356615",
"UB	c #356515",
"VB	c #336315",
"WB	c #2A580F",
"XB	c #306411",
"YB	c #539F21",
"ZB	c #4FA01F",
"aB	c #398213",
"bB	c #58AC22",
"cB	c #5AAC25",
"dB	c #52962B",
"eB	c #76B450",
"fB	c #63A145",
"gB	c #2C6B12",
"hB	c #377F11",
"iB	c #6AC22C",
"jB	c #67BF2B",
"kB	c #377912",
"lB	c #0D2303",
"mB	c #020401",
"nB	c #2A4618",
"oB	c #467927",
"pB	c #447626",
"qB	c #77B846",
"rB	c #80C84D",
"sB	c #7EC64C",
"tB	c #7AC743",
"uB	c #5DAF28",
"vB	c #52A41F",
"wB	c #6AC32C",
"xB	c #5CAF26",
"yB	c #3C8614",
"zB	c #61B728",
"0B	c #54A422",
"1B	c #58A926",
"2B	c #4A981D",
"3B	c #357C11",
"4B	c #4D9D1C",
"5B	c #6FC82F",
"6B	c #020402",
"7B	c #2B3F20",
"8B	c #4B7335",
"9B	c #446931",
"+B	c #709356",
"/B	c #74985D",
"AC	c #6E965B",
"BC	c #6C9C49",
"CC	c #4A8A23",
"DC	c #4A8B21",
"EC	c #6AB635",
"FC	c #57A625",
"GC	c #388014",
"HC	c #5BAF24",
"IC	c #73C72F",
"JC	c #6ABA2A",
"KC	c #52A51F",
"LC	c #4FA11D",
"MC	c #5BB124",
"NC	c #71C42E",
"OC	c #7ACC32",
"PC	c #69BE2B",
"QC	c #387A11",
"RC	c #0F1D08",
"SC	c #234911",
"TC	c #17310B",
"UC	c #0F1A0A",
"VC	c #0F180B",
"WC	c #0E180A",
"XC	c #0E1908",
"YC	c #0A1604",
"ZC	c #1B2A11",
"aC	c #47702D",
"bC	c #41841C",
"cC	c #3A7D1B",
"dC	c #65AE36",
"eC	c #81BC32",
"fC	c #84BA2D",
"gC	c #75C42E",
"hC	c #75CE32",
"iC	c #84C02F",
"jC	c #85B92D",
"kC	c #67B929",
"lC	c #347110",
"mC	c #0B1D02",
"nC	c #071103",
"oC	c #020301",
"pC	c #12210B",
"qC	c #1F4A0B",
"rC	c #457F30",
"sC	c #7DB462",
"tC	c #88BD49",
"uC	c #85C035",
"vC	c #82C631",
"wC	c #87BC2E",
"xC	c #7DCE33",
"yC	c #82C331",
"zC	c #7FB92C",
"0C	c #5AA923",
"1C	c #26520D",
"2C	c #060E01",
"3C	c #091803",
"4C	c #426E34",
"5C	c #88B579",
"6C	c #90C66B",
"7C	c #86CE4A",
"8C	c #83C836",
"9C	c #8AB82D",
"+C	c #7DCE32",
"/C	c #78CE32",
"AD	c #69BA2A",
"BD	c #3C7917",
"CD	c #102305",
"DD	c #1D3315",
"ED	c #5E8849",
"FD	c #8BBA6C",
"GD	c #8CCB5E",
"HD	c #7CCA3D",
"ID	c #76C42F",
"JD	c #6EC32D",
"KD	c #5FB327",
"LD	c #3E7A18",
"MD	c #132807",
"ND	c #020500",
"OD	c #040702",
"PD	c #192A0F",
"QD	c #3F602B",
"RD	c #558832",
"SD	c #509225",
"TD	c #488C1C",
"UD	c #397415",
"VD	c #254E0E",
"WD	c #0D1D05",
"XD	c #070C03",
"YD	c #0E1A06",
"ZD	c #102006",
"aD	c #0E1F05",
"bD	c #091403",
"cD	c #010100",
"                                                          ",
"                                  BACACABADA              ",
"                              EAFAGAHAIAJAKALADA          ",
"                            MANAOAPAQARASATAUAVACA        ",
"                          EAWAXAYAZAaAbAcAdAeAfAVAgA      ",
"                          hAiAjAkAlAmAnAoApAqArAsAtA      ",
"        DA              uAvAwAxAyAzA0A1A2A3A4A5A6A7ADA    ",
"      8A9A+A/ACAABCACABBCBDBEBxAFBGBHBIBJBKBLBMBNBOBDA    ",
"    CAPBQBRBSBTBUBVBWBXBYBZBaBbBcBdBeBfBgBhBiBjBkBlBDA    ",
"    mBnBoBpBqBrBsBtBuBvBwBxByBZAzB0B1B2B3B4B5BjBkBlBDA    ",
"    6B7B8B9B+B/BACBCCCDCECFCGCHCICJCKCLCMCNCOCPCQClBDA    ",
"    DARCSCTCUCVCWCXCYCZCaCbCcCdCeCfCgCIChCiCjCkClCmCDA    ",
"      mBnCMADA        oCpCqCrCsCtCuCvCwCxCyCzC0C1C2C      ",
"                        BA3C4C5C6C7C8C9C+C/CADBDCDCA      ",
"                          CADDEDFDGDHDIDJDKDLDMDND        ",
"                            ODPDQDRDSDTDUDVDWDCA          ",
"                              ABXDYDZDaDbDMADA            ",
"                                  DAcDcDDA                "
};
