/* XPM */
static char *tank_xpm[] = {
"32 28 488 2",
"  	c None",
"BA	c #22201D",
"CA	c #1C1817",
"DA	c #1D1917",
"EA	c #1D1918",
"FA	c #1D1A18",
"GA	c #1B1817",
"HA	c #1E1A18",
"IA	c #1B1717",
"JA	c #1C1816",
"KA	c #232322",
"LA	c #131313",
"MA	c #5A5957",
"NA	c #82684B",
"OA	c #482818",
"PA	c #573217",
"QA	c #4A2917",
"RA	c #563519",
"SA	c #4E2F19",
"TA	c #502D17",
"UA	c #512D17",
"VA	c #4E2F18",
"WA	c #4B2B18",
"XA	c #593819",
"YA	c #5C3C1A",
"ZA	c #452517",
"aA	c #5A3417",
"bA	c #442518",
"cA	c #5E3D1A",
"dA	c #452618",
"eA	c #5D3C1A",
"fA	c #472718",
"gA	c #593417",
"hA	c #472617",
"iA	c #593919",
"jA	c #523217",
"kA	c #B1A79B",
"lA	c #383736",
"mA	c #2B2A29",
"nA	c #776155",
"oA	c #C29209",
"pA	c #9F6505",
"qA	c #C48E01",
"rA	c #A66C04",
"sA	c #BE8703",
"tA	c #AD7404",
"uA	c #B57D03",
"vA	c #B67E03",
"wA	c #AC7304",
"xA	c #BE8803",
"yA	c #C58F02",
"zA	c #CC9601",
"0A	c #995D05",
"1A	c #CE9801",
"2A	c #975B06",
"3A	c #D09B01",
"4A	c #995E06",
"5A	c #CD9901",
"6A	c #9B6006",
"7A	c #CB9601",
"8A	c #9D6205",
"9A	c #A46A04",
"+A	c #C08803",
"/A	c #835C0E",
"AB	c #594F48",
"BB	c #2B2928",
"CB	c #694C41",
"DB	c #BF8D00",
"EB	c #A16706",
"FB	c #C69002",
"GB	c #A86E05",
"HB	c #BF8803",
"IB	c #AE7604",
"JB	c #B77F03",
"KB	c #AE7504",
"LB	c #C08903",
"MB	c #A76D05",
"NB	c #C79101",
"OB	c #A06606",
"PB	c #9A5F06",
"QB	c #CF9A01",
"RB	c #985C06",
"SB	c #D29C01",
"TB	c #D09A00",
"UB	c #9C6206",
"VB	c #CD9702",
"WB	c #9F6405",
"XB	c #A56B04",
"YB	c #C18A03",
"ZB	c #7C5403",
"aB	c #534941",
"bB	c #6B5345",
"cB	c #B88802",
"dB	c #996005",
"eB	c #BE8802",
"fB	c #A06805",
"gB	c #B78103",
"hB	c #A66F04",
"iB	c #AF7803",
"jB	c #A66E04",
"kB	c #B88203",
"lB	c #A06705",
"mB	c #BE8902",
"nB	c #C49002",
"oB	c #935905",
"pB	c #C69201",
"qB	c #915706",
"rB	c #C89401",
"sB	c #935906",
"tB	c #955C06",
"uB	c #975E05",
"vB	c #9E6504",
"wB	c #B98203",
"xB	c #774F03",
"yB	c #534841",
"zB	c #2A2929",
"0B	c #695251",
"1B	c #4B2A0D",
"2B	c #331002",
"3B	c #432104",
"4B	c #361603",
"5B	c #412004",
"6B	c #391803",
"7B	c #3B1600",
"8B	c #401F04",
"9B	c #361402",
"+B	c #432204",
"/B	c #462505",
"AC	c #300E01",
"BC	c #472705",
"CC	c #451F00",
"DC	c #310F02",
"EC	c #472706",
"FC	c #321002",
"GC	c #472605",
"HC	c #321102",
"IC	c #432105",
"JC	c #351102",
"KC	c #401E04",
"LC	c #3D1D0E",
"MC	c #504746",
"NC	c #595757",
"OC	c #66514F",
"PC	c #2D1509",
"QC	c #1E3C04",
"RC	c #488D1C",
"SC	c #539F20",
"TC	c #3E8112",
"UC	c #38780E",
"VC	c #32710C",
"WC	c #235C08",
"XC	c #1D5006",
"YC	c #215706",
"ZC	c #235907",
"aC	c #205406",
"bC	c #1C4804",
"cC	c #21570A",
"dC	c #448917",
"eC	c #49921A",
"fC	c #56A01F",
"gC	c #5CA925",
"hC	c #5AA324",
"iC	c #59A024",
"jC	c #5DA425",
"kC	c #418414",
"lC	c #2F3706",
"mC	c #260800",
"nC	c #341816",
"oC	c #A59C9B",
"pC	c #373636",
"qC	c #4C4B4A",
"rC	c #607954",
"sC	c #144600",
"tC	c #459419",
"uC	c #5BB323",
"vC	c #3E9014",
"wC	c #1E5907",
"xC	c #0C3102",
"yC	c #0E3B03",
"zC	c #1B5C07",
"0C	c #29740A",
"1C	c #398611",
"2C	c #51A61E",
"3C	c #50A41D",
"4C	c #4EA51E",
"5C	c #276F0A",
"6C	c #276B0B",
"7C	c #51A920",
"8C	c #76D037",
"9C	c #86B778",
"+C	c #AED18F",
"/C	c #B7D993",
"AD	c #4C9224",
"BD	c #0E2B01",
"CD	c #4C5148",
"DD	c #252424",
"ED	c #2F302F",
"FD	c #67885F",
"GD	c #124700",
"HD	c #459218",
"ID	c #55AD20",
"JD	c #27600E",
"KD	c #0E3A01",
"LD	c #1B5605",
"MD	c #307A0F",
"ND	c #398715",
"OD	c #3E8D17",
"PD	c #44921A",
"QD	c #499A1D",
"RD	c #4B9A21",
"SD	c #579A33",
"TD	c #629B41",
"UD	c #3C8715",
"VD	c #2C720D",
"WD	c #6CC62E",
"XD	c #7DD142",
"YD	c #85D649",
"ZD	c #96C284",
"aD	c #468C24",
"bD	c #216209",
"cD	c #0B3302",
"dD	c #010700",
"eD	c #67875F",
"fD	c #134700",
"gD	c #408D17",
"hD	c #3A8814",
"iD	c #154704",
"jD	c #154703",
"kD	c #347F11",
"lD	c #368213",
"mD	c #337D13",
"nD	c #529337",
"oD	c #205F0E",
"pD	c #58AF23",
"qD	c #78D435",
"rD	c #7CD738",
"sD	c #80D245",
"tD	c #438F19",
"uD	c #6D9461",
"vD	c #0F3B01",
"wD	c #59A726",
"xD	c #246109",
"yD	c #114101",
"zD	c #236107",
"0D	c #3A8714",
"1D	c #2E770F",
"2D	c #2B720D",
"3D	c #6AC12E",
"4D	c #7BD737",
"5D	c #7AD536",
"6D	c #3F8E14",
"7D	c #216309",
"8D	c #0B3202",
"9D	c #30302F",
"+D	c #739F62",
"/D	c #0F3802",
"AE	c #64B42C",
"BE	c #1D5107",
"CE	c #0E3B00",
"DE	c #246408",
"EE	c #337D12",
"FE	c #2C720E",
"GE	c #388312",
"HE	c #6BC32F",
"IE	c #7AD737",
"JE	c #408F14",
"KE	c #75A162",
"LE	c #103903",
"ME	c #1A4C06",
"NE	c #0D3900",
"OE	c #27680B",
"PE	c #2E7410",
"QE	c #43911A",
"RE	c #6CC52F",
"SE	c #79D636",
"TE	c #408E14",
"UE	c #1B4C07",
"VE	c #26680B",
"WE	c #317A12",
"XE	c #48971D",
"YE	c #7DD938",
"ZE	c #419015",
"aE	c #0F3A03",
"bE	c #1E5109",
"cE	c #2F7711",
"dE	c #47961C",
"eE	c #79D536",
"fE	c #729D61",
"gE	c #0E3802",
"hE	c #1F5508",
"iE	c #0F3D00",
"jE	c #25660A",
"kE	c #2B730E",
"lE	c #367F13",
"mE	c #6DC52F",
"nE	c #7CD937",
"oE	c #6C9260",
"pE	c #0F3C01",
"qE	c #519E21",
"rE	c #23610A",
"sE	c #104101",
"tE	c #205C06",
"uE	c #327B12",
"vE	c #388314",
"wE	c #28700B",
"xE	c #398316",
"yE	c #66875E",
"zE	c #418F17",
"0E	c #3D8B17",
"1E	c #184B06",
"2E	c #144603",
"3E	c #2B700D",
"4E	c #419016",
"5E	c #25680A",
"6E	c #5EB626",
"7E	c #7AD636",
"8E	c #7DDA38",
"9E	c #57B122",
"+E	c #2A650F",
"/E	c #174D03",
"AF	c #28690D",
"BF	c #317A11",
"CF	c #337E12",
"DF	c #378314",
"EF	c #3C8A17",
"FF	c #3B8816",
"GF	c #449418",
"HF	c #2F770C",
"IF	c #327A10",
"JF	c #6FCA2F",
"KF	c #3D483A",
"LF	c #696564",
"MF	c #586B49",
"NF	c #154501",
"OF	c #439118",
"PF	c #58B022",
"QF	c #3E8B15",
"RF	c #215A08",
"SF	c #123E03",
"TF	c #154804",
"UF	c #216408",
"VF	c #2B730B",
"WF	c #3B8613",
"XF	c #4FA320",
"YF	c #48991B",
"ZF	c #469619",
"aF	c #2D730D",
"bF	c #2E760E",
"cF	c #52A920",
"dF	c #70CA30",
"eF	c #72CD31",
"fF	c #74CF32",
"gF	c #429215",
"hF	c #245708",
"iF	c #112501",
"jF	c #5A5A53",
"kF	c #4A4949",
"lF	c #1D1C1C",
"mF	c #848080",
"nF	c #503633",
"oF	c #270800",
"pF	c #223804",
"qF	c #3A7013",
"rF	c #498518",
"sF	c #407912",
"tF	c #3B700E",
"uF	c #33670B",
"vF	c #265507",
"wF	c #1F4605",
"xF	c #1F4504",
"yF	c #1D4002",
"zF	c #1E4604",
"0F	c #1E4404",
"1F	c #234D06",
"2F	c #3A6F0E",
"3F	c #488419",
"4F	c #538F1B",
"5F	c #4F8B1A",
"6F	c #54901C",
"7F	c #54911C",
"8F	c #3E7511",
"9F	c #302E04",
"+F	c #290400",
"/F	c #240400",
"AG	c #9C908E",
"BG	c #514F4F",
"CG	c #2A2828",
"DG	c #695351",
"EG	c #542C06",
"FG	c #3E1701",
"GG	c #512E04",
"HG	c #432103",
"IG	c #4C2802",
"JG	c #452102",
"KG	c #4A2804",
"LG	c #442001",
"MG	c #4B2501",
"NG	c #421F03",
"OG	c #3E1A01",
"PG	c #512A00",
"QG	c #3C1902",
"RG	c #563405",
"SG	c #3B1A02",
"TG	c #552E01",
"UG	c #3D1B03",
"VG	c #573506",
"WG	c #3E1D03",
"XG	c #553406",
"YG	c #4F2800",
"ZG	c #401801",
"aG	c #4E2A04",
"bG	c #442510",
"cG	c #534A4A",
"dG	c #6C5444",
"eG	c #C69401",
"fG	c #A56A06",
"gG	c #CC9502",
"hG	c #AC7105",
"iG	c #C58E03",
"jG	c #B37904",
"kG	c #BC8303",
"lG	c #B37A04",
"mG	c #C58D03",
"nG	c #AC7205",
"oG	c #CC9401",
"pG	c #D39D01",
"qG	c #9E6206",
"rG	c #D59E01",
"sG	c #9C6006",
"tG	c #D7A201",
"uG	c #D59F00",
"vG	c #A06506",
"wG	c #D39C02",
"xG	c #A26706",
"yG	c #A96E05",
"zG	c #C78F03",
"0G	c #7D5402",
"1G	c #554943",
"2G	c #2A2928",
"3G	c #684B41",
"4G	c #C08E00",
"5G	c #C79102",
"6G	c #A76E05",
"7G	c #C79001",
"8G	c #A16606",
"9G	c #CD9701",
"+G	c #985D06",
"/G	c #9C6106",
"AH	c #CD9802",
"BH	c #9E6306",
"CH	c #C79002",
"DH	c #C28B02",
"EH	c #794C00",
"FH	c #534642",
"GH	c #7B6658",
"HH	c #BE900D",
"IH	c #C89501",
"JH	c #C79201",
"KH	c #955B06",
"LH	c #975D05",
"MH	c #BE8901",
"NH	c #9D6404",
"OH	c #B98302",
"PH	c #87621C",
"QH	c #5C524D",
"RH	c #090909",
"SH	c #262423",
"TH	c #89725B",
"UH	c #563B2F",
"VH	c #644831",
"WH	c #583D30",
"XH	c #624631",
"YH	c #5B4030",
"ZH	c #5F4330",
"aH	c #5E4330",
"bH	c #583E30",
"cH	c #664B31",
"dH	c #53392F",
"eH	c #674B31",
"fH	c #694C31",
"gH	c #543A2F",
"hH	c #674A31",
"iH	c #553B2F",
"jH	c #61422E",
"kH	c #563B2E",
"lH	c #5E422E",
"mH	c #ACA49A",
"nH	c #181817",
"    BACADACAEACACACACAEACAFAGAHAIADAIAHAIAHAIADAIAFACAJAKA      ",
"LAMANAOAPAQARASATAUAVARAWAXAOAYAZAaAbAcAdAeAfAgAhAiAWAjAkAlA    ",
"mAnAoApAqArAsAtAuAvAwAxArAyApAzA0A1A2A3A4A5A6A7A8AyA9A+A/AAB    ",
"BBCBDBEBFBGBHBIBJBJBKBLBMBNBOB1APBQBRBSBPBTBUBVBWBFBXBYBZBaB    ",
"mAbBcBdBeBfBgBhBiBiBjBkBlBmBdBnBoBpBqBrBsBpBtBnBuBmBvBwBxByB    ",
"zB0B1B2B3B4B5B6B7B7B6B8B9B+B2B/BACBCACCCDCECFCGCHCICJCKCLCMC    ",
"LANCOCPCQCRCSCTCUCVCWCXCYCZCaCbCcCdCeCfCgChCiCjCkClCmCnCoCpC    ",
"    qCrCsCtCuCvCwCxCyCzC0C1C2C3C4C5C6C7C8C9C+C/CADWCBDCDDD      ",
"    EDFDGDHDIDJDKDLDMDNDODPDQDRDSDTDUDVDWDXDYDZDaDbDcDdD        ",
"    EDeDfDgDhDiDjDkDlDmDmDmDmDmDmDmDnDoDpDqDrDsDtDbDcDdD        ",
"    EDuDvDwDxDyDzD0DmDmDmDmDmDmDmDmDmD1D2D3D4D5D6D7D8DdD        ",
"    9D+D/DAEBECEDEEEmDmDmDmDmDmDmDmDmDFEGEHE4DIEJE7D8DdD        ",
"    9DKELEAEMENEOEmDmDmDmDmDmDmDmDmDmDPEQERE4DSETEbDcDdD        ",
"    9DKELEAEUENEVEmDmDmDmDmDmDmDmDmDmDWEXERE4DYEZEbDcDdD        ",
"    9DKEaEAEbENEOEmDmDmDmDmDmDmDmDmDmDcEdERE4DeETE7D8DdD        ",
"    9DfEgEAEhEiEjEmDmDmDmDmDmDmDmDmDmDkElEmE4DnE6DbDcDdD        ",
"    EDoEpEqErEsEtEuEmDmDmDmDmDmDmDmDvEwExE5D4DeETE7D8DdD        ",
"    EDyEfDzE0E1E2E3EmDmDmDmDmDmDmDmD4E5E6E7E4D8EZEbDcDdD        ",
"    EDyEGDHD9E+EvD/EAFBFCFDFEFFFEFGFHFIFJF7E4D8EZE7DcDKF        ",
"    LFMFNFOFPFQFRFSFTFUFVFWFXFYFZFaFbFcFdFeFeFfFgFhFiFjFkF      ",
"lFmFnFoFpFqFrFsFtFuFvFwFxFyFzF0F1F2F3F4F5F6F5F7F8F9F+F/FAGBG    ",
"CGDGEGFGGGHGIGJGKGKGLGMGNGGGOGPGQGRGSGTGUGVGWGXGWGYGZGaGbGcG    ",
"BBdGeGfGgGhGiGjGkGkGlGmGnGoGfGpGqGrGsGtGqGuGvGwGxGgGyGzG0G1G    ",
"2G3G4GOB5G6GLBKBJBJBKBHBGB7G8G9GPBQB+GSBPBTB/GAHBHCHXBDHEHFH    ",
"mAGHHHdBmBlBkBjBiBiBhBgBfBeBdBnBoBpBqBIHsBJHKHnBLHMHNHOHPHQH    ",
"RHSHTHUHVHWHXHYHZHaHYHXHbHVHUHcHdHeHdHfHdHeHgHhHiHjHkHlHmHnH    ",
"                                                                ",
"                                                                "
};
