/* XPM */
static unsigned char *tank_end[] = {
"32 28 363 2",
" !	c None",
" #	c #000000",
" <	c #000000",
" '	c #000500",
" =	c #0B3302",
" >	c #0C3102",
" $	c #0D0D0D",
" ?	c #0D3900",
" @	c #0E2B01",
" A	c #0E3802",
" B	c #0E3A01",
" C	c #0E3B00",
" D	c #0E3B03",
" E	c #0F3802",
" F	c #0F3A03",
" G	c #0F3B01",
" H	c #0F3C01",
" I	c #0F3D00",
" J	c #103903",
" K	c #104101",
" L	c #112501",
" M	c #114101",
" N	c #123E03",
" O	c #124700",
" P	c #134700",
" Q	c #144600",
" R	c #144603",
" S	c #154501",
" T	c #154703",
" U	c #154704",
" V	c #154804",
" W	c #174D03",
" X	c #184B06",
" (	c #191914",
" )	c #191919",
" %	c #1A1A1A",
" Y	c #1A4C06",
" Z	c #1B4C07",
" [	c #1B5605",
" ]	c #1B5C07",
" ^	c #1C4804",
" _	c #1D4002",
" `	c #1D5006",
" a	c #1D5107",
" b	c #1E3C04",
" c	c #1E4404",
" d	c #1E4604",
" e	c #1E5109",
" f	c #1E5907",
" *	c #1F1919",
" g	c #1F4504",
" h	c #1F4605",
" i	c #1F5508",
" j	c #205406",
" k	c #205C06",
" l	c #205F0E",
" m	c #215706",
" n	c #21570A",
" o	c #215A08",
" p	c #216209",
" q	c #216309",
" r	c #216408",
" s	c #223804",
" t	c #234D06",
" u	c #235907",
" v	c #235C08",
" w	c #236107",
" x	c #23610A",
" +	c #242424",
" y	c #245708",
" z	c #246109",
" {	c #246408",
" |	c #25660A",
" }	c #260800",
" &	c #262626",
" ~	c #265507",
"! 	c #26680B",
"!!	c #270800",
"!#	c #27600E",
"!$	c #27680B",
"!%	c #276B0B",
"!&	c #276F0A",
"!'	c #28690D",
"!(	c #290400",
" ,	c #292929",
"!)	c #29740A",
"!*	c #2A650F",
"!+	c #2B700D",
"!,	c #2B720D",
"!-	c #2B730B",
"!.	c #2B730E",
"!/	c #2C720D",
"!0	c #2C720E",
"!1	c #2D1509",
"!2	c #2D730D",
" -	c #2E2E2E",
"!3	c #2E7410",
"!4	c #2E770F",
"!5	c #2F3706",
"!6	c #2F7711",
"!7	c #300E01",
"!8	c #302E04",
"!9	c #310F02",
"!:	c #317A11",
"!;	c #317A12",
"!<	c #321002",
"!=	c #321102",
"!>	c #32710C",
"!?	c #327B12",
"!@	c #331002",
"!A	c #33670B",
"!B	c #337D12",
"!C	c #337D13",
"!D	c #337E12",
"!E	c #341816",
"!F	c #351102",
"!G	c #361402",
"!H	c #361603",
" .	c #363636",
"!I	c #367F13",
"!J	c #378314",
"!K	c #38780E",
"!L	c #388312",
"!M	c #388314",
"!N	c #391803",
"!O	c #398611",
"!P	c #3A6F0E",
"!Q	c #3A7013",
"!R	c #3A8814",
"!S	c #3B1600",
"!T	c #3B1A02",
"!U	c #3B700E",
"!V	c #3B8613",
"!W	c #3B8816",
"!X	c #3C1902",
"!Y	c #3C8A17",
"!Z	c #3D1B03",
"![	c #3D1D0E",
"!]	c #3D8B17",
"!^	c #3E1701",
"!_	c #3E1A01",
"!`	c #3E1D03",
" 3	c #3E483A",
"!a	c #3E7511",
"!b	c #3E8112",
"!c	c #3E8B15",
"!d	c #3E8D17",
"!e	c #3E9014",
"!f	c #3F8E14",
"!g	c #401E04",
"!h	c #401F04",
"!i	c #407912",
"!j	c #408D17",
"!k	c #408E14",
"!l	c #408F14",
"!m	c #412004",
"!n	c #418414",
"!o	c #419015",
"!p	c #419016",
"!q	c #421F03",
"!r	c #432103",
"!s	c #432104",
"!t	c #432105",
"!u	c #432204",
"!v	c #438F19",
"!w	c #439118",
"!x	c #43911A",
"!y	c #442001",
"!z	c #448917",
"!{	c #44921A",
"!|	c #449418",
"!}	c #451F00",
"!~	c #452102",
"# 	c #459218",
"#!	c #459419",
"##	c #462505",
"#$	c #468C24",
"#%	c #469619",
"#&	c #472605",
"#'	c #472617",
"#(	c #472705",
"#)	c #472706",
"#*	c #472718",
"#+	c #47961C",
"#,	c #482818",
"#-	c #488D1C",
"#.	c #48971D",
"#/	c #48991B",
"#0	c #498518",
"#1	c #49921A",
"#2	c #499A1D",
"#3	c #4A2804",
"#4	c #4A2917",
"#5	c #4B2501",
"#6	c #4B2A0D",
"#7	c #4B2B18",
"#8	c #4B9A21",
"#9	c #4C2802",
" /	c #4C4C49",
"#:	c #4C9224",
" 9	c #4D5148",
"#;	c #4E2F18",
"#<	c #4E2F19",
"#=	c #4EA51E",
"#>	c #4FA320",
"#?	c #502D17",
"#@	c #503633",
" 4	c #504846",
"#A	c #50A41D",
"#B	c #512A00",
"#C	c #512D17",
"#D	c #512E04",
"#E	c #519E21",
"#F	c #51A61E",
"#G	c #51A920",
"#H	c #523217",
"#I	c #53392F",
" 5	c #534643",
" 6	c #534841",
" 7	c #534941",
"#J	c #539F20",
"#K	c #543A2F",
"#L	c #552E01",
"#M	c #553406",
"#N	c #553B2F",
"#O	c #563405",
"#P	c #563519",
"#Q	c #563B2E",
"#R	c #56A01F",
"#S	c #573506",
"#T	c #57B122",
"#U	c #586B49",
"#V	c #58AF23",
"#W	c #58B022",
"#X	c #593417",
"#Y	c #593819",
"#Z	c #593919",
"#[	c #59A024",
"#]	c #59A726",
" 0	c #5A5757",
"#^	c #5AA324",
"#_	c #5B4030",
"#`	c #5BB323",
"#a	c #5C3C1A",
" 8	c #5C524D",
"#b	c #5CA925",
"#c	c #5DA425",
"#d	c #5E422E",
"#e	c #5E4330",
"#f	c #5F4330",
"#g	c #607954",
"#h	c #61422E",
"#i	c #624631",
"#j	c #64B42C",
"#k	c #66514F",
"#l	c #66875E",
"#m	c #674A31",
"#n	c #674B31",
"#o	c #67875F",
"#p	c #67885F",
" 1	c #686464",
"#q	c #694C31",
"#r	c #695251",
"#s	c #6AC12E",
"#t	c #6B5345",
"#u	c #6BC32F",
"#v	c #6C9260",
"#w	c #6CC52F",
"#x	c #6CC62E",
"#y	c #6DC52F",
"#z	c #76D037",
"#{	c #774F03",
"#|	c #78D435",
"#}	c #794C00",
"#~	c #79D536",
"$ 	c #79D636",
"$!	c #7BD737",
"$#	c #7C5403",
"$$	c #7CD937",
"$%	c #7DD142",
"$&	c #7DD938",
"$'	c #835C0E",
" 2	c #858080",
"$(	c #85D649",
"$)	c #86B778",
"$*	c #87621C",
"$+	c #915706",
"$,	c #935905",
"$-	c #935906",
"$.	c #955B06",
"$/	c #955C06",
"$0	c #96C284",
"$1	c #975D05",
"$2	c #975E05",
"$3	c #985D06",
"$4	c #9A5F06",
"$5	c #9B6006",
"$6	c #9C6006",
"$7	c #9C6106",
"$8	c #9D6205",
"$9	c #9D6404",
"$:	c #9E6206",
"$;	c #9E6306",
"$<	c #9F6405",
"$=	c #A06506",
"$>	c #A06606",
"$?	c #A06705",
"$@	c #A06805",
"$A	c #A26706",
"$B	c #A56A06",
"$C	c #A56B04",
" ;	c #A59C9B",
"$D	c #A66C04",
"$E	c #A66E04",
"$F	c #A66F04",
"$G	c #AC7105",
"$H	c #AC7304",
" :	c #ACA49A",
"$I	c #AD7404",
"$J	c #AE7504",
"$K	c #AE7604",
"$L	c #AED18F",
"$M	c #AF7803",
"$N	c #B37904",
"$O	c #B37A04",
"$P	c #B57D03",
"$Q	c #B67E03",
"$R	c #B77F03",
"$S	c #B78103",
"$T	c #B7D993",
"$U	c #B88203",
"$V	c #B98302",
"$W	c #BC8303",
"$X	c #BE8703",
"$Y	c #BE8803",
"$Z	c #BE8901",
"$[	c #BE8902",
"$]	c #BF8803",
"$^	c #C08903",
"$_	c #C28B02",
"$`	c #C49002",
"$a	c #C58D03",
"$b	c #C58E03",
"$c	c #C58F02",
"$d	c #C69002",
"$e	c #C69201",
"$f	c #C79002",
"$g	c #C79101",
"$h	c #C79102",
"$i	c #C79201",
"$j	c #C89501",
"$k	c #CB9601",
"$l	c #CC9502",
"$m	c #CD9702",
"$n	c #CD9802",
"$o	c #CE9801",
"$p	c #CF9A01",
"$q	c #D09A00",
"$r	c #D29C01",
"$s	c #D39C02",
"$t	c #D39D01",
"$u	c #D59E01",
"$v	c #D7A201",
" ! ! ! ! ! ) * ) ) ) ) * ) * ) * ! ! ! ! ! * ) * ) * ) ( ! ! ! !",
" $ ! ! ! !#4#P#<#?#C#;#P#7#Y#,#a ! ! ! ! ! !#*#X#'#Z#7#H ! ! ! !",
" , ! ! ! ! <$X$I$P$Q$H$Y$D$c < < ! ! ! ! ! !$5$k$8$c < <$' ! ! !",
" , ! ! ! < <$]$K < <$J$^ <$g$>$o$4 < ! ! ! ! <$m$<$d < <$# 7 ! !",
" ,#t < < <$@$S$F$M < <$U$?$[ <$`$,$e ! ! ! !$/$`$2$[ < <#{ 6 ! !",
" ,#r#6!@!s!H!m!N!S!S!N!h!G!u!@##!7#(!7!}!9#)!<#&!=!t!F!g![ 4 ! !",
" $ 0#k!1 b#-#J!b!K!> v ` m u j ^ n!z#1#R#b#^#[#c!n!5 }!E ; . ! !",
" ! ! /#g Q#!#`!e f > D ]!)!O#F#A#=!&!%#G#z$)$L$T#: v @ 9 & ! ! !",
" ! ! -#p O#  <!# B [ < <!d!{#2#8 < < <!/#x$%$($0#$ p = ' ! ! ! !",
" ! ! -#o P!j!R U T < < < < ! ! ! < < < l#V#| < <!v p ! ! ! ! ! !",
" ! ! - < G#] z M w < < < < < ! < < <!C!4!,#s < <!f q ! ! ! ! ! !",
" ! ! ! ! E#j a C {!B < < ! ! ! < <!C!C!0!L#u$! <!l q ! ! ! ! ! !",
" ! ! ! ! J#j Y ?!$!C < < ! ! ! ! !!C!C!3!x#w$!$ !k p ! ! ! ! ! !",
" ! ! ! ! J#j Z ?!  < < < ! ! ! !!C <!C!;#. <$!$&!o ! ! ! ! ! ! !",
" ! ! ! ! F#j e ?!$!C ! ! ! ! ! ! < <!C!6#+#w$!#~!k < ! ! ! ! ! !",
" ! ! - < A#j i I |!C < ! ! ! ! ! < <!C!.!I#y$!$$!f ! ! ! ! ! ! !",
" ! ! -#v H#E x K k!? < < < < <!C!C!C!M < < < <#~!k ! ! ! ! ! ! !",
" ! ! -#l P <!] X R!+!C < < < <!C!C!C!p ! ! < < !!o ! ! ! ! ! ! !",
" ! ! -#l O# #T!* G W!'!:!D!J <!W!Y!| < ! ! < ! !!o q = 3 ! ! ! !",
" ! ! 1#U S!w#W!c o N V r!-!V#>#/#%!2 < < ! < ! ! < y L ! ! ! ! !",
" % 2#@!! s!Q#0!i!U!A ~ h g _ d c t!P < ! ! ! ! !!a!8!( ! ! ! ! !",
" ! ! !!^#D!r#9!~#3#3!y#5!q#D!_#B!X#O!T#L!Z#S!`#M!` < < ! ! ! ! !",
" ! ! !$B$l$G$b$N$W$W$O$a < <$B$t$:$u$6$v$: <$=$s$A < < ! ! ! ! !",
" ! ! !$>$h < <$J$R <$J < < ! ! ! <$p$3$r$4$q$7$n$;$f$C$_#} 5 ! !",
" ! ! ! ! ! ! <$E$M$M$F < ! ! ! ! !$e$+$j$-$i$.$`$1$Z$9$V$* 8 ! !",
" # + ! ! ! !#i#_#f#e#_#i ! ! ! ! !#n#I#q#I#n#K#m#N#h#Q#d : % ! !",
" ! ! ! ! ! ! ! ! ! ! ! ! ! ! ! ! ! ! ! ! ! ! ! ! ! ! ! ! ! ! ! !",
" ! ! ! ! ! ! ! ! ! ! ! ! ! ! ! ! ! ! ! ! ! ! ! ! ! ! ! ! ! ! ! !"};
