/* XPM */
static unsigned char *explode_5[] = {
"42 36 27 1",
"!	c None",
"#	c #400000",
"$	c #40301A",
"%	c #553F1F",
"&	c #5B0000",
"'	c #6F4A25",
"(	c #730000",
")	c #8A5A30",
"*	c #905F35",
"+	c #9B9B9B",
",	c #9C4C00",
"-	c #9F603A",
".	c #ABABAB",
"/	c #B45400",
"0	c #B7B7B7",
"1	c #C3C3C3",
"2	c #C7772B",
"3	c #CA7F4F",
"4	c #D3D3D3",
"5	c #DF8A55",
"6	c #DFDFDF",
"7	c #EFEFEF",
"8	c #FCFC9C",
"9	c #FFB080",
":	c #FFCFB0",
";	c #FFDAC5",
"<	c #FFEADF",
"!!!!!!!!!!!!!!!!##!!!!!!!!!!!!!!!!!!!!!!!!",
"!!!!!!!!!!!!!!)!#6#-!!!!!!!!!!!!!!!!!!!!!!",
"!!!!!!!!!!!!!!$##71#+!!!!!!!!!!!!!!!!!!!!!",
"!!!!!!!!).455###7076#!!!!&!!!!!!!!!!!!!!!!",
"!!!!!!'5..59:9&&3366)!!!!!!!!!!!!!!!!!!!!!",
"!!!!!#3009.59:9:;--*%!!!!!!!!!!!!!!!!!!!!!",
"!!!!!3091559:::<<;;(&#!!!!-!!!!!!!!!!!!!!!",
"!!!!!30999:::::;;;<9(####!#!!!!!!!!!!!!!!!",
"!!!!!#999::;:;<<<7<:9,('####!!!!!!!!!!!!!!",
"!!!!!.99:::;<<7<7<<<<;<;5(###!!!!!!!!!!!!!",
"!!!!#1:;<:;<7<<<<<7<7<77<:2##!#!!!!!!!!!!!",
"!!!!#1;<<7<777<<<7;<;<<;7<<(##&##!!!!!!!!!",
"!!!!#:<7777777<<;<;;;<<<77;,9952/#!!!!!!!!",
"!!!!3;7777777<;<888;888;7::9<<:95&##!!!!!!",
"!!!!367777777<;<;;;88888;::<<<<;9(&##!!!!!",
"!!!!&67777<7<<<;<;;<888;;<;7<77<<<;9(#!!!!",
"!!!!967777<7<<<<;;<<;;;;;;<777<<7<7<<,#!!!",
"!!##9;77777<<<<<;<;;<<<<<;77<;<<7<<<<(#!!!",
"!#35;;7777777<<<<<;;<777<7<7<<<777<<</##!!",
"!%9:;;77777777<<<<<;<<777777<<<7<77<<9&#!!",
"!#.9;<<77777<7<<;<<<<77777<<<77<7<77<<2##!",
"!#-9;<7777777<<<<<<<<77777<<<<7<<<7<<<;#!!",
"!#&:<<7777777<<<<<777777<<<<7777<<<<;<5##!",
"!#&;;777<7777<<<7<<777777777<77<<<<<;;(##!",
"!#&:777777<7<<<<7<777777777777<<<7<7<2(##!",
"!##5<<777<;<<<;<<77777777777777<77<775(#!!",
"!!#(<7<<<<<<<<<777<77777777777777777<5&##!",
"!!#%;<<;;<<<7<<<7<<<<777777777<7777<<9&#!!",
"!!!#:;;8;<<<<<7<<<<<7<<77<<77777<77<<5&#!!",
"!!!#3:;;;<<<;;<7<<;<;<<7<<7<<77<<<<<,&##!!",
"!!!!39:9:<<<<<<<<:9:::;<<<<<<<<<<<<;(##!!!",
"!!!!-259:<;<;8;85,(,2,,;<<<<<<<<<;;,##!!!!",
"!!!!!/259;;<:88:,&&&&&&(,95:-<:,-,&##!!!!!",
"!!!!!!#/2592,,9'########&&&&#######!!#!!!!",
"!!!!!!!!#&##3####!#!!############!!!!!!!!!",
"!!!!!!!!!!!!!!!!!!!!!!!!!!!!!!!!!!!!!!!!!!"};
