/* XPM */
static unsigned char *explode_9[] = {
"42 36 27 1",
"!	c None",
"#	c #2A200F",
"$	c #400000",
"%	c #40301A",
"&	c #4A3A1A",
"'	c #553F1F",
"(	c #5B0000",
")	c #6F4A25",
"*	c #730000",
"+	c #754F2A",
",	c #8A5A30",
"-	c #9C4C00",
".	c #9F603A",
"/	c #ABABAB",
"0	c #B45400",
"1	c #C7772B",
"2	c #C7C72B",
"3	c #CA7F4F",
"4	c #D0FC5C",
"5	c #D3D3D3",
"6	c #DF8A55",
"7	c #EFEFEF",
"8	c #FCFC9C",
"9	c #FFB080",
":	c #FFCFB0",
";	c #FFDAC5",
"<	c #FFEADF",
"!!!+!!!!!!!!!3!!!!!!!!!!!!!!!!!!!!!!!!!!!!",
"!!!!!!!!!!!!%!#!!!!!!!!!!!!!!!!!!!!!!!!!!!",
"!!!!!!!$()((!!!!!!!!!!!!!!!!!!!!!!!!!!!!!!",
"!!!!!!(')-)+0!!!'3,!!!!!!!!!!!!!!!!!!!!!!!",
"!!!!!$),.3..3!36963!!!!!!&!!!!!!!!!!!!!!!!",
"!!!!!)))'-336699:96'!!!!!!!!!!!!!!!!!!!!!!",
"!!!!(-----065:::9/61!!!!!!!!!!!!!!!!!!!!!!",
"!!!!$-0)01169:::9933#!!!!!!!!!!!!!!!!!!!!!",
"!!!!(-000111;:;;9966-#!!!!!!!!!!!!!!!!!!!!",
"!!!!*-111629:;::9::661!.)!!!!!!!!!!!!!!!!!",
"!!!(-011169::;;;<;:999363!!!!!!!!!!!!!!!!!",
"!!!*-139999::;;;;;::999663(!!!!!!!!!!!!!!!",
"!!!!001669;:::;;:;;999:999.!!!!!!!!!!!!!!!",
"!!!#---1199::::;;<:699;::93#!!!!!!!!!!!!!!",
"!!!*')-016999::<;:999:;;;966*$)###$!!!!!!!",
"!!!(*)-0119999::9:::9;96;96661961666#!!!!!",
"!!!!'---116969999::9899966699:9;:88991!!!!",
"!!!!--01112699899:::9999699::;;::::8861!!!",
"!!!!1111196699:::::;:99:;;;<;<::;8<8899$!!",
"!$*)311119969:9::;:;:::<<;;<;;;:;;<;8893!!",
"!$*.6--11169699:;;;;:;;<7<<;8<<8;8;;8:86!!",
"!$*.600001169::;:;;<<<777;;;;;<;88:88::6!!",
"!!*-61-311169;;:;:;<<;<77;;;;;<;8998:8:91!",
"!!*-1611119::;;;;;<<<777<<;<<7;;;8888888)!",
"!!$-1363616:9::::;;;<777<<;;;<8;;;888884.!",
"!!!$1131119999669:;;<<7<<7<;<;8;88;888891!",
"!!!!-11331;::6969:<<;;<7<;;;88;888888888-!",
"!!!!*3669::;;969:9<;:::;99;;;;;8;;;88889#!",
"!!!!*.369666:::999;;:9:;669<8<<<<;;8;86$!!",
"!!!!!-33661669999::699:9:69;;;<<<;8;;:$!!!",
"!!!!!'0316333::999-.-6699669999<;;;;::#!!!",
"!!!!!#'001.3633663$$$(336669::9999::96!!!!",
"!!!!!!!*--0,03331#!!#$($1166969999:99$!!!!",
"!!!!!!!$(*-)0.0-!!!!!!!##'1166699996$!!!!!",
"!!!!!!!!!!!!#)!!!!!!!!!!!!!!-366/3$!!!!!!!",
"!!!!!!!!!!!!!!!!!!!!!!!!!!!!!!&..!!!!!!!!!"};
