/* XPM */
static unsigned char *explode_3[] = {
"42 36 22 1",
"!	c None",
"#	c #2A200F",
"$	c #400000",
"%	c #553F1F",
"&	c #5B0000",
"'	c #6F4A25",
"(	c #730000",
")	c #754F2A",
"*	c #8A5A30",
"+	c #9B9B9B",
",	c #9C4C00",
"-	c #B7B7B7",
".	c #C3C3C3",
"/	c #C7772B",
"0	c #CA7F4F",
"1	c #DF8A55",
"2	c #DFDFDF",
"3	c #EFEFEF",
"4	c #FFB080",
"5	c #FFCFB0",
"6	c #FFDAC5",
"7	c #FFEADF",
"!!!!!!!!!!!!!!!!!!!!!!!!!!!!!!!!!!!!!!!!!!",
"!!!!!!!!!!!!!!!!!!!!!!!!!!!!!!!!!!!!!!!!!!",
"!!!!!!!!!!!!!!!!!!!!!!!!!!!!!!!!!!!!!!!!!!",
"!!!!!!!!!!!!!!!!!!!!!!!!!!!!!!!!!!!!!!!!!!",
"!!!!!!!!!!!!!!!!!!!!!!!!!!!!!!!!!!!!!!!!!!",
"!!!!!!!!!!!!!!!!!!!!!!!!!!!!!!!!!!!!!!!!!!",
"!!!!!!!!!!!!!!!!!!!!!!!!!!!!!!!!!!!!!!!!!!",
"!!!!!!!!!!!!!!!!!!!!!!!!!!!!!!!!!!!!!!!!!!",
"!!!!!!!!!!!!!!!!!!!!!!!!!!!!!!!!!!!!!!!!!!",
"!!!!!!!!!!!!!!!!!!!!!!!!!!!!!!!!!!!!!!!!!!",
"!!!!!!!!!!!!!!!!!!!!!!!!!!!!!!!!!!!!!!!!!!",
"!!!!!!!!!!!!!!!!!!!!!!!!!!!!!!!!!!!!!!!!!!",
"!!!!!!!!!!!!!!!!!!!!!!!!!!!!!!!!!!!!!!!!!!",
"!!!!!!!!!!!!!!!!!!!!!#!!!!!!!!!!!!!!!!!!!!",
"!!!!!!!!!!!!!!!!!!!$&&!!!!!!!!!!!!!!!!!!!!",
"!!!!!!!!!!!!!!!!!!(1675,!!!!!!!!!!!!!!!!!!",
"!!!!!!!!!!!!!!!!!$577775$!!!!!!!!!!!!!!!!!",
"!!!!!!!!!!!!!!!!,673377752)$!!!!!!!!!!!!!!",
"!!!!!!!!!!!!!!!$0677777773320$!!!!!!!!!!!!",
"!!!!!!!!!!!!!!!!1777733777723*!!!!!!!!!!!!",
"!!!!!!!!!!!!!!!!27777733737.2)!!!!!!!!!!!!",
"!!!!!!!!!!!!!'!$56776733733-$$!!!!!!!!!!!!",
"!!!!!!!!!!!!!!!!04566676764&!!!!!!!!!!!!!!",
"!!!!!!!!!!!!!!!!$044557334$!!!!!!!!!!!!!!!",
"!!!!!!!!!!!!!!!%!!./',46*!!!!!!!!!!!!!!!!!",
"!!!!!!!!!!!!!!!!!!+$!!$!!!!!!!!!!!!!!!!!!!",
"!!!!!!!!!!!!!!!!!!!!!!!!!!!!!!!!!!!!!!!!!!",
"!!!!!!!!!!!!!!!!!!!!!!!!!!!!!!!!!!!!!!!!!!",
"!!!!!!!!!!!!!!!!!!!!!!!!!!!!!!!!!!!!!!!!!!",
"!!!!!!!!!!!!!!!!!!!!!!!!!!!!!!!!!!!!!!!!!!",
"!!!!!!!!!!!!!!!!!!!!!!!!!!!!!!!!!!!!!!!!!!",
"!!!!!!!!!!!!!!!!!!!!!!!!!!!!!!!!!!!!!!!!!!",
"!!!!!!!!!!!!!!!!!!!!!!!!!!!!!!!!!!!!!!!!!!",
"!!!!!!!!!!!!!!!!!!!!!!!!!!!!!!!!!!!!!!!!!!",
"!!!!!!!!!!!!!!!!!!!!!!!!!!!!!!!!!!!!!!!!!!",
"!!!!!!!!!!!!!!!!!!!!!!!!!!!!!!!!!!!!!!!!!!"};
