/* XPM */
static unsigned char *explode_7[] = {
"42 36 23 1",
"!	c None",
"#	c #400000",
"$	c #553F1F",
"%	c #5B0000",
"&	c #6F4A25",
"'	c #730000",
"(	c #754F2A",
")	c #8A5A30",
"*	c #905F35",
"+	c #9C4C00",
",	c #9F603A",
"-	c #B45400",
".	c #B7B7B7",
"/	c #C7772B",
"0	c #C7C72B",
"1	c #CA7F4F",
"2	c #D0FC5C",
"3	c #DF8A55",
"4	c #FCFC9C",
"5	c #FFB080",
"6	c #FFCFB0",
"7	c #FFDAC5",
"8	c #FFEADF",
"!!!!!!!###!!!!!!!!!!!!!!!!!!!!!!!!!!!!!!!!",
"!!!!###$%$$!!$))&$%!!!!!!!!!!!!!!!!!!!!!!!",
"!!!!%$$&++&$$,,)))$!!!!!!!!!!!!!!!!!!!!!!!",
"!!!###'+,*-,11111,)!!!!!!!!!!!!!!!!!!!!!!!",
"!!##%%%%+/15111331+!!!!!!!!!!!!!!!!!!!!!!!",
"!!%%$#%$+155333///,!!!!!!!!!!!!!!!!!!!!!!!",
"!#%$%%$++/555531//-!!!!!!!!!!!!!!!!!!!!!!!",
"!##+'$+-/1665533///)+!!!!!!!!!!!!!!!!!!!!!",
"!!%+++,/1/666665/33//&+&$!!!!!!!!!!!!!!!!!",
"!#%++//115656657663/1//*+!!!!!!!!!!!!!!!!!",
"##$+//33335665566663//1/-$!!!!!!!!!!!!!!!!",
"#%$++/////13555666533/3//+#!!!!!!!!!!!!!!!",
"!%%!'+-/////535555//333//+!!!!!!!!!!!!!!!!",
"!!!!'++/////35333///3633/-$!!!!!!!!!!!!!!!",
"!!!!%$+/////3/53///55355///-#+/%30303!!!!!",
"!!!!'&+/////355333333/53/////35555220-!!!!",
"!%%%+++////3030353////////333655545433/!!!",
"!!!&-+/////000353/////////3563566422233!!!",
"!$++++-////3330333////3/3335356774246303!!",
"%$+''$+-////0333353///355556568664444335#!",
"#++##%$+-////0555333/35555567666664434453!",
"#+++%%%$+///3355555333555356863353744444/!",
"#'+/''+++-/566655563355535557553447644443#",
"#'+-/++/-/55335566665565556687747774444550",
"!#++,+++-/33/13356565656656646448444444423",
"!!'+++++-1//////355335.6556664447744444420",
"!!#$+++//13/////56631556565554444424242220",
"!!!%++-//////+-3563///1135566644444222233/",
"!!!#$$+++++/,1/1551//,-//3556676664332533!",
"!!!!%$&&+$$+,11111+$*,,-/155566766766555!!",
"!!!!#$'$+%%$,,,,,$#%#&-///1/337666666/!!!!",
"!!!!!##%$%%'$&&&!!!!!!$)-////53565551!!!!!",
"!!!!!!!!#%##%%#!!!!!!!!&(+/+//1//31/1!!!!!",
"!!!!!!!!!!!###!!!!!!!!!###)++-//11/&!!!!!!",
"!!!!!!!!!!!!!!!!!!!!!!!!!!!$++**)(!!!!!!!!",
"!!!!!!!!!!!!!!!!!!!!!!!!!!!!!%%%!!!!!!!!!!"};
