/* XPM */
static unsigned char *explode_13[] = {
"42 36 7 1",
"!	c None",
"#	c #400000",
"$	c #4A3A1A",
"%	c #553F1F",
"&	c #5B0000",
"'	c #6F4A25",
"(	c #9C4C00",
"!!!!!!!!!!!!!!!!!!!!!!!!!!!!!!!!!!!!!!!!!!",
"!!!!!!!!!!!!!!!!!!!!!!!!!!!!!!!!!!!!!!!!!!",
"!!!!!!!!!!!!!!!!!!!!!!!!!!!!!!!!!!!!!!!!!!",
"!!!!!!!!!!!!!!!!!!!!!!!!!!!!!!!!!!!!!!!!!!",
"!!!!!!!!!!!!!!!!!!!!!!!!!!!!!!!!!!!!!!!!!!",
"!!!!!!!!!!!!!!!!!!!!!!!!!!!!!!!!!!!!!!!!!!",
"!!!!!!!!!!!!!!!!!!!!!!!!!!!!!!!!!!!!!!!!!!",
"!!!!!!!!!!!!!!!!!!!!!!!!!!!!!!!!!!!!!!!!!!",
"!!!!!!!!!!!!!!!!!!!!!!!!!!!!!!!!!!!!!!!!!!",
"!!!!!!!!!!!!#!!!!!!!!!!!!!!!!!!!!!!!!!!!!!",
"!!!!!!!!!!!!!!!!!!!!!!!!!!!!!!!!!!!!!!!!!!",
"!!!!!!!!!!!!!!!!!!!!!!!!!!!!!!!!!!!!!!!!!!",
"!!!!!!!!!!!!!!!!!!!!!!!!!!!!!!!!!!!!!!!!!!",
"!!!!!!!!!!!!!!!!!!!!!!!!!!!!!!!!!!!!!!!!!!",
"!!!!!!!!!!!!!!!!!!!!!!!!!!!!!!!!!!!!!!!!!!",
"!!!!!!!!!!!!!!!!!!!!!!!!!!!!!!!!!!!!!!!!!!",
"!!!!!!!!!!!!!!!!!!!!!!!!!!!!!!!!!!!!!!!!!!",
"!!!!!!!!!!!!!!!!!!!!!!!!!!!!!!!!!!!!!!!!!!",
"!!!!!!!!!!!!!!!!!!!!##!#!!!!!!!!!!!!!!!!!!",
"!!!!!!!!!!!!!!!!!!##&!!!!!!!!!!!!!!!!!!!!!",
"!!!!!!!!!!!!!!!!!!!&!!!!!!!!!!!!!!!!!!!!!!",
"!!!!!!!!!!!!!!!!!!!!!!!!!!!!!!!!!!!!!!!!!!",
"!!!!!!!!!!!!!!!!!!!!!!!!!!!!!!!!!!!!!!!!!!",
"!!!!!!!!!!!!!!!!!!!!!!!!!!###!''!!!!!!!!!!",
"!!!!!!!!!!!!!!!!!!!!!!!!!!!!##'(&!!!!!!!!!",
"!!!!!!!!!!!!!!!!!!!!!!!!!!!###('&!!!!!!!!!",
"!!!!!!!!!!!!!!!!!!!!!!!!!#!#%('($!!!!!!!!!",
"!!!!!!!!!!!!!!!!!!!!!!!#&'%'''&%#!!!!!!!!!",
"!!!!!!!!!!!!!!!!!!!!!####%'&'%&&#!!!!!!!!!",
"!!!!!!!!!!!!!!!!!!!!!!###'%&##&##!!!!!!!!!",
"!!!!!!!!!!!!!!!!!!!!!!!!###$####!!!!!!!!!!",
"!!!!!!!!!!!!!!!!!!!!!!!!!####&#!!!!!!!!!!!",
"!!!!!!!!!!!!!!!!!!!!!!!!!!##!#!!!!!!!!!!!!",
"!!!!!!!!!!!!!!!!!!!!!!!!!!!!#!!!!!!!!!!!!!",
"!!!!!!!!!!!!!!!!!!!!!!!!!!!!!!!!!!!!!!!!!!",
"!!!!!!!!!!!!!!!!!!!!!!!!!!!!!!!!!!!!!!!!!!"};
