/* XPM */
static unsigned char *explode_11[] = {
"42 36 17 1",
"!	c None",
"#	c #400000",
"$	c #40301A",
"%	c #4A3A1A",
"&	c #553F1F",
"'	c #5B0000",
"(	c #6F4A25",
")	c #754F2A",
"*	c #77C72B",
"+	c #8A5A30",
",	c #905F35",
"-	c #9C4C00",
".	c #9F603A",
"/	c #B45400",
"0	c #C7772B",
"1	c #CA7F4F",
"2	c #DF8A55",
"!!!!!!!!!!!!!!!!!!!!!!!!!!!!!!!!!!!!!!!!!!",
"!!!!!!!!!!!!!!!!!!!!!!!!!!!!!!!!!!!!!!!!!!",
"!!!!!!!!!!!!!!!!!!!!!!!!!!!!!!!!!!!!!!!!!!",
"!!!!#!!!####!!!!!!!!!!!!!!!!!!!!!!!!!!!!!!",
"!!!!##'!#'####!!!!!!!!!!!!!!!!!!!!!!!!!!!!",
"!!!!#'&+-(&'##!!!!!!!!!!!!!!!!!!!!!!!!!!!!",
"!!!!#&-+,-&'###!!!!!!!!!!!!!!!!!!!!!!!!!!!",
"!!####'+.-&&####!!!!!!!!!!!!!!!!!!!!!!!!!!",
"!!!!##'&)('######!!!!!!!!!!!!!!!!!!!!!!!!!",
"!!!!##((&'#'####!!!!!!!!!!!!!!!!!!!!!!!!!!",
"!!!!#'%&&#########!!!!!!!!!!!!!!!!!!!!!!!!",
"!!!!!##'##########!!!!!!!!!!!!!!!!!!!!!!!!",
"!!!!##''########'####!!!!!!!!!!!!!!!!!!!!!",
"!!!#####'##########'#!!!!!!!!!!!!!!!!!!!!!",
"!!!!!!################!!!!!!!!!!!!!!!!!!!!",
"!!!##!######!!########!!!!!!!!!!!!!!!!!!!!",
"!!!!!!#!!!##!!##'#'###!!!!#00-&/-!!!!!!!!!",
"!!!!!!!#!!!####'''####!!!(/000----!!!!!!!!",
"!!!!!!!!!!!###&(&'###!!#&/+-0....--!!!!!!!",
"!!!!!!!!!!!##''&''#####'#-&----,,./!!!!!!!",
"!!!!!!!####!##########%##()((&--(.,0-!!!!!",
"!!!!!!!!###!!!!#!#!####'#&-((-+,(.,00-!!!!",
"!!!!!!!!!!!!!!!!!!!####''-+-,..,..0000!!!!",
"!!!!!!!!!!!!!!!!!!!#####&--++..1010000!!!!",
"!!!!!!!!!!!!!!!!!!!!!##'&&--+..0120000&!!!",
"!!!!!!!!!!!!!!!!!!!!###'&(,+..11112011#!!!",
"!!!!!!!!!!!!!!!!!!!!!###'&&&)-,11111110!!!",
"!!!!!!!!!!!!!!!!!!!!!####((++(11111111.!!!",
"!!!!!!!!!!!!!!!!!!!!!####(,--...111..00!!!",
"!!!!!!!!!!!!!!!!!!!!!!###&+)+..,1....0-!!!",
"!!!!!!!!!!!!!!!!!!!!!!!###(-()),+,1011&!!!",
"!!!!!!!!!!!!!!!!!!!!!!!!###&(&&-+../00!!!!",
"!!!!!!!!!!!!!!!!!!!!!!!!!###&&+-,.,.*-!!!!",
"!!!!!!!!!!!!!!!!!!!!!!!!!!!###!$&(&--!!!!!",
"!!!!!!!!!!!!!!!!!!!!!!!!!!!!!!!!!!!!!!!!!!",
"!!!!!!!!!!!!!!!!!!!!!!!!!!!!!!!!!!!!!!!!!!"};
