/* XPM */
static unsigned char *explode_2[] = {
"42 36 21 1",
"!	c None",
"#	c #2A200F",
"$	c #400000",
"%	c #4A3A1A",
"&	c #553F1F",
"'	c #5B0000",
"(	c #737373",
")	c #7F7F7F",
"*	c #9B9B9B",
"+	c #9F603A",
",	c #ABABAB",
"-	c #B7B7B7",
".	c #C3C3C3",
"/	c #CA7F4F",
"0	c #D3D3D3",
"1	c #DF8A55",
"2	c #DFDFDF",
"3	c #FFB080",
"4	c #FFCFB0",
"5	c #FFDAC5",
"6	c #FFEADF",
"!!!!!!!!!!!!!!!!!!!!!!!!!!!!!!!!!!!!!!!!!!",
"!!!!!!!!!!!!!!!!!!!!!!!!!!!!!!!!!!!!!!!!!!",
"!!!!!!!!!!!!!!!!!!!!!!!!!!!!!!!!!!!!!!!!!!",
"!!!!!!!!!!!!!!!!!!!!!!!!!!!!!!!!!!!!!!!!!!",
"!!!!!!!!!!!!!!!!!!!!!!!!!!!!!!!!!!!!!!!!!!",
"!!!!!!!!!!!!!!!!!!!!!!!!!!!!!!!!!!!!!!!!!!",
"!!!!!!!!!!!!!!!!!!!!!!!!!!!!!!!!!!!!!!!!!!",
"!!!!!!!!!!!!!!!!!!!!!!!!!!!!!!!!!!!!!!!!!!",
"!!!!!!!!!!!!!!!!!!!!!!!!!!!!!!!!!!!!!!!!!!",
"!!!!!!!!!!!!!!!!!!!!!!!!!!!!!!!!!!!!!!!!!!",
"!!!!!!!!!!!!!!!!!!!!!!!!!!!!!!!!!!!!!!!!!!",
"!!!!!!!!!!!!!!!!!!!!!!!!!!!!!!!!!!!!!!!!!!",
"!!!!!!!!!!!!!!!!!!!!!!!!!!!!!!!!!!!!!!!!!!",
"!!!!!!!!!!!!!!!!!!!!!!!!!!!!!!!!!!!!!!!!!!",
"!!!!!!!!!!!!!!!!!!!!!!!!!!!!!!!!!!!!!!!!!!",
"!!!!!!!!!!!!!!!$$/41$!!!!!!!!!!!!!!!!!!!!!",
"!!!!!!!!!!!!!!#+34444&'!!!!!!!!!!!!!!!!!!!",
"!!!!!!!!!!!!!!!,.533663!!!!!!!!!!!!!!!!!!!",
"!!!!!!!!!!!!!!!,03'3665$!!!!!!!!!!!!!!!!!!",
"!!!!!!!!!!!!!!(*0646656/!!!!!!!!!!!!!!!!!!",
"!!!!!!!!!!!!!!%-4266641!!!!!!!!!!!!!!!!!!!",
"!!!!!!!!!!!!!!!/,4554&!!!!!!!!!!!!!!!!!!!!",
"!!!!!!!!!!!!!!&!+)/$!!!!!!!!!!!!!!!!!!!!!!",
"!!!!!!!!!!!!!!!!!#!!!!!!!!!!!!!!!!!!!!!!!!",
"!!!!!!!!!!!!!!!!!!!!!!!!!!!!!!!!!!!!!!!!!!",
"!!!!!!!!!!!!!!!!!!!!!!!!!!!!!!!!!!!!!!!!!!",
"!!!!!!!!!!!!!!!!!!!!!!!!!!!!!!!!!!!!!!!!!!",
"!!!!!!!!!!!!!!!!!!!!!!!!!!!!!!!!!!!!!!!!!!",
"!!!!!!!!!!!!!!!!!!!!!!!!!!!!!!!!!!!!!!!!!!",
"!!!!!!!!!!!!!!!!!!!!!!!!!!!!!!!!!!!!!!!!!!",
"!!!!!!!!!!!!!!!!!!!!!!!!!!!!!!!!!!!!!!!!!!",
"!!!!!!!!!!!!!!!!!!!!!!!!!!!!!!!!!!!!!!!!!!",
"!!!!!!!!!!!!!!!!!!!!!!!!!!!!!!!!!!!!!!!!!!",
"!!!!!!!!!!!!!!!!!!!!!!!!!!!!!!!!!!!!!!!!!!",
"!!!!!!!!!!!!!!!!!!!!!!!!!!!!!!!!!!!!!!!!!!",
"!!!!!!!!!!!!!!!!!!!!!!!!!!!!!!!!!!!!!!!!!!"};
