/* XPM */
static unsigned char *explode_6[] = {
"42 36 27 1",
"!	c None",
"#	c #2A200F",
"$	c #400000",
"%	c #40301A",
"&	c #4A3A1A",
"'	c #553F1F",
"(	c #5B0000",
")	c #6F4A25",
"*	c #730000",
"+	c #754F2A",
",	c #8A5A30",
"-	c #9C4C00",
".	c #9F603A",
"/	c #ABABAB",
"0	c #B45400",
"1	c #C3C3C3",
"2	c #C7772B",
"3	c #CA7F4F",
"4	c #D3D3D3",
"5	c #DF8A55",
"6	c #DFDFDF",
"7	c #EFEFEF",
"8	c #FCFC9C",
"9	c #FFB080",
":	c #FFCFB0",
";	c #FFDAC5",
"<	c #FFEADF",
"!!!!.!!!!!!!#!!$!&!!!!!!!!!!!!!!!!!!!!!!!!",
"!!!!!+$---'!!!!!!!!!!!!!!!!!!!!!!!!!!!!!!!",
"!!!!!(,2022(!(!$$!!!!!!!!)!!!!!!!!!!!!!!!!",
"!!!!!-232225$*595$!!!!!!!!!!!!!!!!!!!!!!!!",
"!!!!---02299.::::-)!!!!!!!!!!!!!!!!!!!!!!!",
"!!!(-202222:<<;:::(!!!!!6!!!!!!!!!!!!!!!!!",
"!!!*2222222;<<;;;:3$!!!!!!!!!!!!!!!!!!!!!!",
"!!$-22229599<<;<;:9.$$!!!!!!!!!!!!!!!!!!!!",
"!!$2225299;;;<<<<;:95$0$!!!!!!!!!!!!!!!!!!",
"!!'2599999<<;<;<;;;:;:::5$!!!!!!!!!!!!!!!!",
"!!.299;<;<<:;;<;<<;;:<:::*!!!!!!!!!!!!!!!!",
"!!(359:<777;::<;<<;;:;::;9$!!!!!!!!!!!!!!!",
"!!!2359977<<:;<<7<<::;;;::95$$-!!!!!!!!!!!",
"!!$23399;<<;;;;8<<<:<;<:<999522-$$!!!!!!!!",
"!!-33355:<;:;;;88;;8<;8::::::9:9-*95!!!!!!",
"!!..33599:<::;;;;;;;88:::;;;;<;<;8::$!!!!!",
"!!!-33999:;;;;;8<;88;;:;<;;<;<;<;;88:-!!!!",
"!!$259:::::;;;;;;<;;;<;<<<<<;7<<;;;8;;*!!!",
"*-:39:::;;:;<8;<;;;;;<<<77;<<<<<<<;;89*$!!",
"-3:9599:;;;;<;;<<;77<<<77<;;;<<<;<8;885$!!",
"-/:9599::;;<<<<<;<<<<<777;<<<<<<;89::8:'!!",
",3:5941:::;<<<<;<<<<7777;;;;;7<;;8:8;;::$!",
".399:;<<<<<7<<<<<<<<7777<;;8;<;<;;88888:$!",
")3599:4:;<<<77777<<777<<<<;;<8;;;;88;889$!",
"!-599:::;;<;<7<<<<;777777<7<;;;;;;88888*!!",
"!$2599:9;;;<<;<<<<<<777777<<;;;8;;;8888*!!",
"!!29999:;<;<;;<<<<<<777777<;888;<;8;;8:$!!",
"!!399:;<;;<<;<;<;<<<7<<<7<<<;8<<;;88:9($!!",
"!!35:;;<::<<<;;;;;;<<<;<<7<<<<<7;8;88:.$!!",
"!!$29:<;9:;<<<<::;;;;<<<<:;<;<<;<;;;<;$!!!",
"!!$259:::::;<;::;999:;;;<;<7<<;;<<<;<2$!!!",
"!!!-55999:;;;;::-233.:;:;:<;<<<<;<<;:-$!!!",
"!!!!-25999::9::9(!!!*9:99::;<<<<<<::-$!!!!",
"!!!!(022359::999!!!!!!-''59:;:<<<;:-$!!!!!",
"!!!!!(--223559(!!!!!!!!!!!393-::::9$!!!!!!",
"!!!!!!!$)!$$%$!!!!!!!!!!!!$$$$35:)!!!!!!!!"};
