/* XPM */
static unsigned char *explode_8[] = {
"42 36 23 1",
"!	c None",
"#	c #2A200F",
"$	c #400000",
"%	c #40301A",
"&	c #4A3A1A",
"'	c #553F1F",
"(	c #5B0000",
")	c #6F4A25",
"*	c #730000",
"+	c #754F2A",
",	c #8A5A30",
"-	c #905F35",
".	c #9C4C00",
"/	c #9F603A",
"0	c #B45400",
"1	c #C7772B",
"2	c #C7C72B",
"3	c #CA7F4F",
"4	c #D0FC5C",
"5	c #DF8A55",
"6	c #FCFC9C",
"7	c #FFB080",
"8	c #FFCFB0",
"!!!!!!!$!$!!!!'!!!!!!!!!!!!!!!!!!!!!!!!!!!",
"!!!!!!!$$!!!!#$$!!!!!!!!!!!!!!!!!!!!!!!!!!",
"!!!!!$$($('!())+'(($!!!%!!!!!!!!!!!!!!!!!!",
"!!!!$((((.)!.-//,+'$!!!!!!!!!!!!!!!!!!!!!!",
"!!!!$(*.)..33/.,,-.(!!!!!!!!!!!!!!!!!!!!!!",
"!!!!!!((-0155//3//.'!!!!!!!!!!!!!!!!!!!!!!",
"!!!!!!!()155111/0/.(!!!!!!!!!!!!!!!!!!!!!!",
"!!!!!!((.175313....'!!!!!!!!!!!!!!!!!!!!!!",
"!!!(!!(.1155511....)(!!!!!!!!!!!!!!!!!!!!!",
"!!!!!&).015521111/0..&!(!!!!!!!!!!!!!!!!!!",
"!!!(('..015551111310..)'(!!!!!!!!!!!!!!!!!",
"!!('....01115755311/.0/.'!!!!!!!!!!!!!!!!!",
"!$(&..1001111115111..01.)(!!!!!!!!!!!!!!!!",
"!$$((.01101111011/1.011..*!!!!!!!!!!!!!!!!",
"!!!!$(.00.)1..1110.01110.'!!!!!!!!!!!!!!!!",
"!!!!$(*.0).0..0000.11110.*!!!!!11111/!!!!!",
"!!!!$$)..)....1000.11111..'!$01255211!!!!!",
"!!!!$()....111110.111111...01112225511!!!!",
"!!$(*().01111111110111....111115552752.!!!",
"!!$(((....11111110......011111177555222'!!",
"!$('$$)*..01111110.......1.1557877775522$!",
"!$(!!$((&0.0111110......0011775778775542$!",
"!$(!!!$$(...111111....00.1135757788887751!",
"!$($!!!$$*..0111110...1000111117778775551!",
"!!(')$!$().01111310.0100.01111177778874751",
"!!$((&$('...01111111000.001111587878887551",
"!!$$($$$('..).0./110000/001155577878887572",
"!!!!$$($(')*(')'0/0)...0/.1175777777777672",
"!!!!!$$(*)'(((((..)'')..00/155577755775721",
"!!!!!!$$$$$((('*..*&(&').-/135575555757751",
"!!!!!!!!$!$$$('*)'($$((').0/3175755525522.",
"!!!!!!!!!!!!!$((($!!!$$('../3335715222211!",
"!!!!!!!!!!!!!$$!!!!!!!$$(''..3331111111!!!",
"!!!!!!!!!!!!!!!!!!!!!!!$$$(),.////'!!!!!!!",
"!!!!!!!!!!!!!!!!!!!!!!!!!!$(').....!!!!!!!",
"!!!!!!!!!!!!!!!!!!!!!!!!!!!$$(&'$!!!!!!!!!"};
