/* XPM */
static unsigned char *explode_12[] = {
"42 36 12 1",
"!	c None",
"#	c #400000",
"$	c #4A3A1A",
"%	c #553F1F",
"&	c #5B0000",
"'	c #6F4A25",
"(	c #754F2A",
")	c #8A5A30",
"*	c #905F35",
"+	c #9C4C00",
",	c #B45400",
"-	c #C7772B",
"!!!!!!!!!!!!!!!!!!!!!!!!!!!!!!!!!!!!!!!!!!",
"!!!!!!!!!!!!!!!!!!!!!!!!!!!!!!!!!!!!!!!!!!",
"!!!!!!!!!!!!!!!!!!!!!!!!!!!!!!!!!!!!!!!!!!",
"!!!!!!!!!!!!!!!!!!!!!!!!!!!!!!!!!!!!!!!!!!",
"!!!!!!!!!!!!!!!!!!!!!!!!!!!!!!!!!!!!!!!!!!",
"!!!!!!!!!!!!!!!!!!!!!!!!!!!!!!!!!!!!!!!!!!",
"!!!!!!###!!!!!!!!!!!!!!!!!!!!!!!!!!!!!!!!!",
"!!!!!##$&#!!!!!!!!!!!!!!!!!!!!!!!!!!!!!!!!",
"!!!!!!!###!!!!!!!!!!!!!!!!!!!!!!!!!!!!!!!!",
"!!!!!!!###!!!!!!!!!!!!!!!!!!!!!!!!!!!!!!!!",
"!!!!!!!!#!!!!!!!!!!!!!!!!!!!!!!!!!!!!!!!!!",
"!!!!!!!!!!!!!!!!!!!!!!!!!!!!!!!!!!!!!!!!!!",
"!!!!!!!!!!!!!!!!!!!!!!!!!!!!!!!!!!!!!!!!!!",
"!!!!!!!!!!!!!!!!!!!!!!!!!!!!!!!!!!!!!!!!!!",
"!!!!!!!!!!!!!!!!!!!!!!!!!!!!!!!!!!!!!!!!!!",
"!!!!!!!!!!!!!!!!!!!!!!!!!!!!!!!!!!!!!!!!!!",
"!!!!!!!!!!!!!!!!!!!!!!!!!!!!!!!!!!!!!!!!!!",
"!!!!!!!!!!!!!!!!!!!!!!!!!'%+'+&'&!!!!!!!!!",
"!!!!!!!!!!!!!!!!!!!!!!!!#&++&&&###!!!!!!!!",
"!!!!!!!!!!!!!!!!!!!!!!!#&#&&#&#&&&&!!!!!!!",
"!!!!!!!!!!!!!!!!!!!!!!!######&&&&##!!!!!!!",
"!!!!!!!!!!!!!!!!!!!!!!!!!!!!#&##'%&,+!!!!!",
"!!!!!!!!!!!!!!!!!!!!!!!!#####&&#%%%+-+#!!!",
"!!!!!!!!!!!!!!!!!!!!!!!!##&%%%%%%%'-,+!!!!",
"!!!!!!!!!!!!!!!!!!!!!!!!#&#&&%'+'+*-++#!!!",
"!!!!!!!!!!!!!!!!!!!!!!!##&#&%%)+*-**+'!!!!",
"!!!!!!!!!!!!!!!!!!!!!!!##&%%'+(+*+')+'&!!!",
"!!!!!!!!!!!!!!!!!!!!!!!!#!##&%'+))')''%!!!",
"!!!!!!!!!!!!!!!!!!!!!!!!!#!#%%%%''%+'&&!!!",
"!!!!!!!!!!!!!!!!!!!!!!!!!####&%'%%''''&!!!",
"!!!!!!!!!!!!!!!!!!!!!!!!!!###&%'''''&&!!!!",
"!!!!!!!!!!!!!!!!!!!!!!!!!!!!!##&%%%%%!!!!!",
"!!!!!!!!!!!!!!!!!!!!!!!!!!!!!!!#&##$!!!!!!",
"!!!!!!!!!!!!!!!!!!!!!!!!!!!!!!!!!!!!!!!!!!",
"!!!!!!!!!!!!!!!!!!!!!!!!!!!!!!!!!!!!!!!!!!",
"!!!!!!!!!!!!!!!!!!!!!!!!!!!!!!!!!!!!!!!!!!"};
