/* XPM */
static unsigned char *explode_4[] = {
"42 36 25 1",
"!	c None",
"#	c #400000",
"$	c #553F1F",
"%	c #5B0000",
"&	c #6F4A25",
"'	c #730000",
"(	c #754F2A",
")	c #8A5A30",
"*	c #9C4C00",
"+	c #9F603A",
",	c #ABABAB",
"-	c #B45400",
".	c #B7B7B7",
"/	c #C3C3C3",
"0	c #C7772B",
"1	c #CA7F4F",
"2	c #D3D3D3",
"3	c #DF8A55",
"4	c #DFDFDF",
"5	c #EFEFEF",
"6	c #FCFC9C",
"7	c #FFB080",
"8	c #FFCFB0",
"9	c #FFDAC5",
":	c #FFEADF",
"!!!!!!!!!!!!!!!!!!!!!!!!!!!!!!!!!!!!!!!!!!",
"!!!!!!!!!!!!!!!!!!!!!!!!!!!!!!!!!!!!!!!!!!",
"!!!!!!!!!!!!!!!!!!!!!!!!!!!!!!!!!!!!!!!!!!",
"!!!!!!!!!!!!!!!!!!!!!!!!!!!!!!!!!!!!!!!!!!",
"!!!!!!!!!!!!!!!!!!!!!!!!!!!!!!!!!!!!!!!!!!",
"!!!!!!!!!!!!!!!!!!!!#!!!!!!!!!!!!!!!!!!!!!",
"!!!!!!!!!!!!!###!###+#&!!!!!!!!!!!!!!!!!!!",
"!!!!!!!!!!!!##%###$#(#!!!!!!!!!!!!!!!!!!!!",
"!!!!!!!!!!!#+94:21%%$#.&!!!!!!!!!!!!!!!!!!",
"!!!!!!!!!!#%55555:*$%$%%##!!!!!!!!!!!!!!!!",
"!!!!!!!!!!#(555555:31$$)+%#!!!!!!!!!!!!!!!",
"!!!!!!!!!!#$5555555:5,.55/+##!!!!!!!!!!!!!",
"!!!!!!!!!#%1:5:55555555551%)%!!!!!!!!!!!!!",
"!!!!!!!!!#+5:55555555555::58##!!!!!!!!!!!!",
"!!!!!!!!#155:555555555:9995:5####!!!!!!!!!",
"!!!!!!!!!#4555:5555555:979::7''*73!!!!!!!!",
"!!!!!!!!##%9:5:5555555:989:5:5::97)!!!!!!!",
"!!!!!!!!##'-5::55555555::555555::8*#!!!!!!",
"!!!!!!!!#%7955555555555::555555::7##!!!!!!",
"!!!!!!!!#39::555555555:955555555:8%##!!!!!",
"!!!!!!!#'8:5::55555555::55555555::%##!!!!!",
"!!!!!!!#145::::555:::::::55555555:*##!!!!!",
"!!!!!!!#%8::::55555:::::::55::555:'&#!!!!!",
"!!!!!!!#(0:::55:55559::59:555555::%##!!!!!",
"!!!!!!!#%55::555:9:::5::55:5::5::9%##!!!!!",
"!!!!!!!#%:5:55555:::55:9::55:55:::%#!!!!!!",
"!!!!!!!##+::55:55::9::::::55:5:::*#!!!!!!!",
"!!!!!!!!##*:555:::9:9:99:5:::581%#!!!!!!!!",
"!!!!!!!!!155::99999999:::::97'%##(!!!!!!!!",
"!!!!!!!!!)55::9:9693778783%%####!!!!!!!!!!",
"!!!!!!!!!#&)39987+'##########!!!!!!!!!!!!!",
"!!!!!!!!!!!!!######!!!###!!!!!!!!!!!!!!!!!",
"!!!!!!!!!!!!!!!!!!!!!!!!!!!!!!!!!!!!!!!!!!",
"!!!!!!!!!!!!!!!!!!!!!!!!!!!!!!!!!!!!!!!!!!",
"!!!!!!!!!!!!!!!!!!!!!!!!!!!!!!!!!!!!!!!!!!",
"!!!!!!!!!!!!!!!!!!!!!!!!!!!!!!!!!!!!!!!!!!"};
