/* XPM */
static unsigned char *explode_10[] = {
"42 36 19 1",
"!	c None",
"#	c #400000",
"$	c #553F1F",
"%	c #5B0000",
"&	c #6F4A25",
"'	c #730000",
"(	c #754F2A",
")	c #8A5A30",
"*	c #905F35",
"+	c #9C4C00",
",	c #9F603A",
"-	c #B45400",
".	c #B7B7B7",
"/	c #C7772B",
"0	c #C7C72B",
"1	c #CA7F4F",
"2	c #DF8A55",
"3	c #FFB080",
"4	c #FFCFB0",
"!!!!!!#!!!!!!!!!!!!!!!!!!!!!!!!!!!!!!!!!!!",
"!!!!###%!!$%$%##!!!!!!!!!!!!!!!!!!!!!!!!!!",
"!!!###%&!#+$$&%##!!!!!!!!!!!!!!!!!!!!!!!!!",
"!#!%%%++,/,*)+(%%#!!!!!!!!!!!!!!!!!!!!!!!!",
"!##%&$++,//*)$$%%#!!!!!!!!!!!!!!!!!!!!!!!!",
"!!!!+&++/2,+&&$+$%#!!!!!!!!!!!!!!!!!!!!!!!",
"!!!!#%-////+++&&$%!!!!!!!!!!!!!!!!!!!!!!!!",
"!!!##%+/2/,-+$%$$#!!!!!!!!!!!!!!!!!!!!!!!!",
"!!!##%/1/1,-+$$%%%%!!!!!!!!!!!!!!!!!!!!!!!",
"!!!%$+--//,-&&&'&++$!!!!!!!!!!!!!!!!!!!!!!",
"!#%%%+++///*++-++&+&&%%#!!!!!!!!!!!!!!!!!!",
"#%%%$$&+++/--+++&$&$+&%%!!!!!!!!!!!!!!!!!!",
"#%%$&$$$$+--++&$+&&&,+$%!!!!!!!!!!!!!!!!!!",
"!##%+&&++,++++'$&$&+-+&%#!!!!!!!!!!!!!!!!!",
"!!#%$$$&++&$$&$'$&++++$%#!!!!!!!!!!!!!!!!!",
"!!!#$%%#%%%'%++'+++++&$%#!!!%///////!!!!!!",
"!!!#%%#%%%%%$$$%+-/+++$%%!%+//20////+!!!!!",
"!!!##%%#%%$&$+++--/-+&$%%%++/////2/0/$!!!!",
"#!###%&$&+++++++++++'$$$$++,//////20//!!!!",
"!!!##%$$+++++&$$$&$%%%$++++-/11/111/2//&!!",
"!!!!!#%%&+++$'%$#%##%%'$$+++,/1222/2//0/+!",
"!!!!!!%%%&$+&$%%#####%$%%++-//122332/222!!",
"!!!!!!###%%&+&$%%#%'%%%%$+-,//112234322//!",
"!!!!!!!!#%%&+++%%%%'$%'%&+///22233333220&!",
"!#!!!!!!#%%$++&$%%%%%'%'&++-//11113232302+",
"!!!!!!###%%%$$+$%%'%%%%%&&++/12112.43222/-",
"!!!!!!!#####%%$'%%%%%%%$$++/221222323322//",
"!!!!!!!!!!!###%%#####%%$'++/2222232323//2/",
"!!!!!!!!!!!!!!##!!!###%%$$+,/22121122323//",
"!!!!!!!!!!!!!!#!!!!!###%%$&+/1///11322/0//",
"!!!!!!!!!!!!!!!!!!!!!!##%%$++/////2222/2//",
"!!!!!!!!!!!!!!!!!!!!!!!##%%&++,////22////!",
"!!!!!!!!!!!!!!!!!!!!!!!!!##%$&+--//////+!!",
"!!!!!!!!!!!!!!!!!!!!!!!!!##%%%$$%!!!!!!!!!",
"!!!!!!!!!!!!!!!!!!!!!!!!!!!####!!!!!!!!!!!",
"!!!!!!!!!!!!!!!!!!!!!!!!!!!!!!!!!!!!!!!!!!"};
