/* XPM */
static char *tank_xpm[] = {
"32 32 10 1",
" 	c None",
"1	c #0F0D04",
"2	c #653338",
"3	c #FFB25F",
"4	c #FDD8A4",
"5	c #EA9840",
"6	c #B06E35",
"7	c #848484",
"8	c #7A3E44",
"9	c #FFFFFF",
"                                ",
"                                ",
"                                ",
"                                ",
"                                ",
"                                ",
"                                ",
"                2222221         ",
"              2234444322222221  ",
"         222223444565464453621  ",
"62222222222666444445445446652221",
"24333333356436444445443446536721",
"82222286662888344456545446538821",
"      25664668533444436336552721",
"      23564556653333338556366421",
"      24364333665555558885656321",
"      23664333336666686333336521",
"      26464555555555555555556621",
"      24466666666666666666662221",
"      24888888888888888888666211",
"      28566666688888888888886211",
"      25666656665666566656562211",
"       268656865686568656662111 ",
"        22222222222222222221111 ",
"                                ",
"                                ",
"                                ",
"                                ",
"                                ",
"                                ",
"                                ",
"                                "
};
