/* XPM */
static char *tank_xpm[] = {
"32 32 8 1",
" 	c None",
"1	c #653338",
"2	c #FFB25F",
"3	c #FDD8A4",
"4	c #B06E35",
"5	c #EA9840",
"6	c #848484",
"7	c #7A3E44",
"                                ",
"                                ",
"                                ",
"                                ",
"                                ",
"                                ",
"                                ",
"                                ",
"         111111                 ",
"  111111123333211               ",
"  14253343545333211111          ",
"11154433533533333444111111111114",
"16425433233533333423452222222231",
"17725433535453332777144471111117",
"1615542242333322574434451       ",
"1344245572222225445534521       ",
"1245457775555554422234231       ",
"1542222247444442222234421       ",
"1445555555555555555534341       ",
"1114444444444444444444331       ",
" 144477777777777777777731       ",
" 147777777777777444444571       ",
" 114545444544454445444451       ",
"   144454745474547454741        ",
"    1111111111111111111         ",
"                                ",
"                                ",
"                                ",
"                                ",
"                                ",
"                                ",
"                                "
};
