/* XPM */
static char *tank_xpm[] = {
"32 32 10 1",
" 	c None",
"1	c #0E0A02",
"2	c #653338",
"3	c #FDD8A4",
"4	c #848484",
"5	c #B06E35",
"6	c #FFB25F",
"7	c #7A3E44",
"8	c #EA9840",
"9	c #FFFFFF",
"                                ",
"                                ",
"          22221  22221          ",
"         234321  234321         ",
"       225555555556555221       ",
"       7356356333653653711      ",
"       7356356333653656711      ",
"       7356575868575656711      ",
"       7356783333387656711      ",
"       7355388333583756711      ",
"       7355355333253756711      ",
"       7355633333336756711      ",
"       7355863333368756711      ",
"       7355886858688756711      ",
"       7355585858587556711      ",
"       7358575565575856711      ",
"       7356857767758656711      ",
"       7353385737583356711      ",
"       7355555757555556711      ",
"       7356736585666656711      ",
"       7355557767755556711      ",
"       7336888565888633711      ",
"       7336555565555633711      ",
"       7333222767222333711      ",
"       222277226227722221       ",
"        77771 2621 77771        ",
"              2621              ",
"              2621              ",
"              2321              ",
"              5251              ",
"                                ",
"                                "
};
