/* XPM */
static char *tank_xpm[] = {
"32 32 9 1",
" 	c None",
"1	c #B06E35",
"2	c #653338",
"3	c #0B0802",
"4	c #FDD8A4",
"5	c #FFB25F",
"6	c #7A3E44",
"7	c #EA9840",
"8	c #848484",
"                                ",
"                                ",
"              1213              ",
"              2423              ",
"              2523              ",
"              2523              ",
"        66663 2523 66663        ",
"       222266225226622223       ",
"       6444222656222444633      ",
"       6445111151111544633      ",
"       6445777151777544633      ",
"       6411116656611115633      ",
"       6415645171555515633      ",
"       6411111616111115633      ",
"       6414471646174415633      ",
"       6415716656617515633      ",
"       6417161151161715633      ",
"       6411171717176115633      ",
"       6411775717577615633      ",
"       6411754444457615633      ",
"       6411544444445615633      ",
"       6411411444214615633      ",
"       6411477444174615633      ",
"       6415674444476515633      ",
"       6415161757161515633      ",
"       6415415444514515633      ",
"       6415415444514514633      ",
"       221111111115111223       ",
"         248423  248423         ",
"          22223  22223          ",
"                                ",
"                                "
};
