/* XPM */
static char *gem_4_xpm[] = {
"16 16 6 1",
" 	c None",
"1	c #180E0E",
"2	c #D76B6B",
"3	c #D72B2B",
"4	c #B30000",
"5	c #FFFFFF",
"      1111      ",
"    1122221     ",
"   122333331    ",
"  12333333341   ",
" 1233332333551  ",
" 1233323435541  ",
" 1233233455351  ",
" 1233323553541  ",
" 1233325535341  ",
" 1233355453341  ",
" 1233553533341  ",
" 1235535333341  ",
"  15535333341   ",
"   125333341    ",
"    1144441     ",
"      1111      "
};
