/* XPM */
static char *gem_3_xpm[] = {
"16 16 6 1",
" 	c None",
"1	c #180E0E",
"2	c #D76B6B",
"3	c #D72B2B",
"4	c #B30000",
"5	c #FFFFFF",
"      1111      ",
"     122221     ",
"    12333341    ",
"    12333341    ",
"   1233223341   ",
"   1233243341   ",
"   1232243341   ",
"   1233243341   ",
"   1233243341   ",
"   1233243351   ",
"   1233243551   ",
"   1233445541   ",
"   1233355351   ",
"    12355351    ",
"     155451     ",
"      1111      "
};
