/* XPM */
static char *gem_2_xpm[] = {
"16 16 5 1",
" 	c None",
"1	c #180E0E",
"2	c #D76B6B",
"3	c #B30000",
"4	c #D72B2B",
"       11       ",
"      1221      ",
"      1231      ",
"      1231      ",
"     124431     ",
"     124331     ",
"     124331     ",
"     124331     ",
"     124331     ",
"     124331     ",
"     124331     ",
"     123331     ",
"      1431      ",
"      1431      ",
"      1331      ",
"       11       "
};
