/* XPM */
static char *gem_1_xpm[] = {
"16 16 6 1",
" 	c None",
"1	c #180E0E",
"2	c #FFFFFF",
"3	c #D76B6B",
"4	c #D72B2B",
"5	c #B30000",
"      1111      ",
"     122321     ",
"    12242451    ",
"    12424451    ",
"   1242334451   ",
"   1324354451   ",
"   1243354451   ",
"   1344354451   ",
"   1344354451   ",
"   1344354451   ",
"   1344354451   ",
"   1344554451   ",
"   1344444451   ",
"    13444451    ",
"     155551     ",
"      1111      "
};
