/* XPM */
static char *exit_xpm[] = {
"32 32 5 1",
" 	c None",
"1	c #515453",
"2	c #646464",
"3	c #FFC900",
"4	c #FFFFFF",
"                                ",
"                                ",
"  1111111111111111111111111111  ",
"  1222222222222222222222222221  ",
"  1233333331111111111333333321  ",
"  1231111111111111111111111321  ",
"  1231111111111111111111111321  ",
"  1231111111111111111111111321  ",
"  1231111111111111111111111321  ",
"  1231111111111111111111111321  ",
"  1231111111111111111111111321  ",
"  1211111111441111441111111121  ",
"  1211111111441111441111111121  ",
"  1211111111441111441111111121  ",
"  1211111111441111441111111121  ",
"  1211111111444444441111111121  ",
"  1211111111444444441111111121  ",
"  1211111111441111441111111121  ",
"  1211111111441111441111111121  ",
"  1211111111441111441111111121  ",
"  1211111111441111441111111121  ",
"  1231111111111111111111111321  ",
"  1231111111111111111111111321  ",
"  1231111111111111111111111321  ",
"  1231111111111111111111111321  ",
"  1231111111111111111111111321  ",
"  1231111111111111111111111321  ",
"  1233333331111111111133333321  ",
"  1222222222222222222222222221  ",
"  1111111111111111111111111111  ",
"                                ",
"                                "
};
