/* XPM */
static char *rock_xpm[] = {
"32 32 8 1",
" 	c None",
"1	c #908F8E",
"2	c #E9E4DE",
"3	c #4F4F4F",
"4	c #D0CCC7",
"5	c #AEAEAE",
"6	c #3E372A",
"7	c #7B7B7B",
"                                ",
"                                ",
"              111               ",
"             12223              ",
"            12222213            ",
"           12222222233          ",
"          1222222222243         ",
"         12222222222243         ",
"         322222222224553        ",
"        3422222222255543        ",
"        34442222224554223       ",
"       3444544222455422223      ",
"      35444544554555422243      ",
"     344441444445555544443      ",
"    34444552222445555444453     ",
"   3444441222222445555445553    ",
"   3444454222224444555515556    ",
"  354444544222444445144515556   ",
"  344444444444444445445515556   ",
"  644445444444554444555515516   ",
"  644451444445555544155557116   ",
"   64451444445555554155553776   ",
"    651354445555555511551366    ",
"     663554455555555111766      ",
"       65555555555553166        ",
"       675515555555536          ",
"        6651555555576           ",
"          6655555566            ",
"            666666              ",
"                                ",
"                                ",
"                                "
};
