/* XPM */
static char *start_xpm[] = {
"32 32 5 1",
" 	c None",
"1	c #777E7F",
"2	c #959695",
"3	c #FFCE00",
"4	c #FFFFFF",
"                                ",
"                                ",
"                                ",
"                                ",
"                                ",
"                                ",
"      11111111111111111111      ",
"      12222222222222222221      ",
"      12333332222223333321      ",
"      12322222222222222321      ",
"      12324442222224442321      ",
"      12324222222222242321      ",
"      12324222222222242321      ",
"      12222222222222222221      ",
"      12222222222222222221      ",
"      12222222222222222221      ",
"      12222222222222222221      ",
"      12222222222222222221      ",
"      12324222222222242321      ",
"      12324222222222242321      ",
"      12324442222224442321      ",
"      12322222222222222321      ",
"      12333332222223333321      ",
"      12222222222222222221      ",
"      11111111111111111111      ",
"                                ",
"                                ",
"                                ",
"                                ",
"                                ",
"                                ",
"                                "
};
