/* XPM */
static char *player_6_xpm[] = {
"32 32 14 1",
" 	c None",
"1	c #000010",
"2	c #384060",
"3	c #30B050",
"4	c #F80000",
"5	c #A8A8C0",
"6	c #306030",
"7	c #606888",
"8	c #004008",
"9	c #380000",
"A	c #983000",
"B	c #D86028",
"C	c #E8E8E8",
"D	c #FFFFFF",
"                                ",
"              11                ",
"              121               ",
"              141               ",
"              121               ",
"              151               ",
"             1151               ",
"           11617111             ",
"          1686121861            ",
"          1383113831            ",
"111111111113811118311           ",
"24255557722119AA91861111        ",
"1111111111119ABCA91111111111111 ",
"     1551B1319AB911227755552421 ",
"     1CC1213811118311111111111  ",
"     1111C1886116881C1121       ",
"     1551C1381216831C1551       ",
"     1771C1381716831C1771       ",
"     17712136171663121771       ",
"     11111163171636111111       ",
"         166315163661           ",
"          1631513361            ",
"          1161513611            ",
"         111112111111           ",
"         163314133361           ",
"         133312133331           ",
"         111111111111           ",
"             1661               ",
"             1881               ",
"             1331               ",
"              11                ",
"                                "
};
