/* XPM */
static char *player_3_xpm[] = {
"32 32 14 1",
" 	c None",
"1	c #000010",
"2	c #384060",
"3	c #30B050",
"4	c #F80000",
"5	c #A8A8C0",
"6	c #306030",
"7	c #606888",
"8	c #004008",
"9	c #380000",
"A	c #983000",
"B	c #D86028",
"C	c #E8E8E8",
"D	c #FFFFFF",
"                                ",
"                                ",
"                                ",
"                                ",
"       1               11       ",
"      121             1221      ",
"      1241           1441       ",
"       1421         1221        ",
"        1251       1551         ",
"         1551     1751          ",
"111       1721    121           ",
"1331       112111121            ",
"1331       1719AA91D1111        ",
"1331       119ABBA911C571       ",
"1331        119AA913811111      ",
"1331       112111121136681      ",
"11161    1112166661271668811    ",
"16661111161571111161551688611   ",
"1888666331551CC2B1881551863161  ",
"163333331551111111833155136131  ",
" 166666155133338338333152111361 ",
"  11111221663338318333312416331 ",
"     14411866638338311111421161 ",
"    1221 111866866115C57112111  ",
"     11  136118811725C5721161   ",
"          111111127211112111    ",
"                1211777211      ",
"                1121777721      ",
"                  1122221       ",
"                    1111        ",
"                                ",
"                                "
};
