/* XPM */
static char *player_5_xpm[] = {
"32 32 14 1",
" 	c None",
"1	c #000010",
"2	c #384060",
"3	c #30B050",
"4	c #F80000",
"5	c #A8A8C0",
"6	c #306030",
"7	c #606888",
"8	c #004008",
"9	c #380000",
"A	c #983000",
"B	c #D86028",
"C	c #E8E8E8",
"D	c #FFFFFF",
"                                ",
"              11                ",
"              121               ",
"              141               ",
"              121               ",
"              151               ",
"              151               ",
"              171               ",
"              121               ",
"              11            111 ",
"11111111111  1111111       1331 ",
"24255557722119AA9171       1331 ",
"1111111111119ABBA91111111111111 ",
"     111118319AA911227755552421 ",
"     18663333111136111111111111 ",
"   1188663366611636611DDDD16111 ",
"  11688666666121111136111116661 ",
" 161368888888171CC7188336668881 ",
" 131633333338171111133333333361 ",
"163111311333817133333366666661  ",
"13361133333381513336666811111   ",
"161333311113815136668111        ",
" 11633175C511151668111          ",
"  1661275C527121811631          ",
"   111211112714111111           ",
"     11277711121                ",
"     12777712111                ",
"      1222211                   ",
"       1111                     ",
"                                ",
"                                ",
"                                "
};
