/* XPM */
static char *player_1_xpm[] = {
"32 32 14 1",
" 	c None",
"1	c #000010",
"2	c #384060",
"3	c #30B050",
"4	c #F80000",
"5	c #A8A8C0",
"6	c #306030",
"7	c #606888",
"8	c #004008",
"9	c #380000",
"A	c #983000",
"B	c #D86028",
"C	c #E8E8E8",
"D	c #FFFFFF",
"                                ",
"                                ",
"           1111111111           ",
"       11  1333333331   1       ",
"      1221 1111111111  121      ",
"       1441   1661    1421      ",
"        1221  1661   1241       ",
"         1551 1331  1521        ",
"          1571833811551         ",
"          112163361271          ",
"         17112111121171         ",
"         151119BA911151         ",
"         1C119ACBA911C1         ",
"         121619AA916121         ",
"         1B1121111211B1         ",
"         117216886121A1         ",
"         1551833331751          ",
"        155138333381551         ",
"       15513886336881551        ",
"      1251186863368681551       ",
"     142171638666683611221      ",
"    12412213186666813121441     ",
"    121CCC136388883631CC1221    ",
"     11CCC131633336131CCC11     ",
"      15551311811811315551      ",
"      17771361811816317771      ",
"      12221633333333612221      ",
"      11111131333313111111      ",
"           1613333161           ",
"            11833811            ",
"             111111             ",
"                                "
};
