/* XPM */
static char *player_4_xpm[] = {
"32 32 14 1",
" 	c None",
"1	c #000010",
"2	c #384060",
"3	c #30B050",
"4	c #F80000",
"5	c #A8A8C0",
"6	c #306030",
"7	c #606888",
"8	c #004008",
"9	c #380000",
"A	c #983000",
"B	c #D86028",
"C	c #E8E8E8",
"D	c #FFFFFF",
"                                ",
"                                ",
"                                ",
"      11               1        ",
"     1221             121       ",
"      1441           1421       ",
"       1221         1241        ",
"        1551       1521         ",
"         1571     1551          ",
"          121    1271       111 ",
"           121111211       1331 ",
"       1111D19AA9171       13311",
"      175C119ABBA911       13311",
"     111118319AA911        1331 ",
"     186631121111211       1331 ",
"   1188661721666612111    16111 ",
"  11688615516111117516111116661 ",
" 1613681551881B2CC1551336668881 ",
" 131631551338111111155133333361 ",
"163111251333833833331551666661  ",
"13361421333381383336612211111   ",
"16112411111383383666811441      ",
" 11121175C511668668111 1221     ",
"  1611275C527118811631  11      ",
"   111211112721111111           ",
"     1127771121                 ",
"     1277771211                 ",
"      1222211                   ",
"       1111                     ",
"                                ",
"                                ",
"                                "
};
