/* XPM */
static char *player_2_xpm[] = {
"32 32 14 1",
" 	c None",
"1	c #000010",
"2	c #384060",
"3	c #30B050",
"4	c #F80000",
"5	c #A8A8C0",
"6	c #306030",
"7	c #606888",
"8	c #004008",
"9	c #380000",
"A	c #983000",
"B	c #D86028",
"C	c #E8E8E8",
"D	c #FFFFFF",
"                                ",
"                                ",
"               11               ",
"              121               ",
"              141               ",
"              121               ",
"              151               ",
"              151               ",
"              171               ",
"              121               ",
"111            11               ",
"1331       1111111  11111111111 ",
"1331       1719AA911227755552421",
"11111111111119ABBA91111111111111",
"124255557722119AA913811111      ",
"11111111111163111133336681      ",
"11161DDDD1166361166633668811    ",
"16661111163111112166666688611   ",
"1888666338817CC171888888863161  ",
"163333333331111171833333336131  ",
" 166666663333331718333113111361 ",
"  11111866663331518333333116331 ",
"       111866631518311113333161 ",
"         111866151115C57133611  ",
"         136118121725C5721661   ",
"          111111417211112111    ",
"               12111777211      ",
"               11121777721      ",
"                  1122221       ",
"                    1111        ",
"                                ",
"                                "
};
