/* XPM */
static char *player_7_xpm[] = {
"32 32 14 1",
" 	c None",
"1	c #000010",
"2	c #384060",
"3	c #30B050",
"4	c #F80000",
"5	c #A8A8C0",
"6	c #306030",
"7	c #606888",
"8	c #004008",
"9	c #380000",
"A	c #983000",
"B	c #D86028",
"C	c #E8E8E8",
"D	c #FFFFFF",
"                                ",
"                                ",
"                                ",
"      11               1        ",
"     1221             121       ",
"      1441           1421       ",
"       1221  1111   1241        ",
"        155116666111521         ",
"         1571633681551          ",
"          12133331271           ",
"         111211112111           ",
"      11116819BA91861111        ",
"     17721189ACBA98112771       ",
"     1551B1319AA9131B1551       ",
"     1CC12112111121121CC1       ",
"     111117216886121C1111       ",
"     15515518666617511551       ",
"     17155138666681551771       ",
"     11551136666663155171       ",
"     12511163666636115511       ",
"    1421 1663666636611221       ",
"   1241   1633333361  1441      ",
"   121    1163333611   1221     ",
"    1    111111111111   11      ",
"         163333333361           ",
"         133333333331           ",
"         111111111111           ",
"             1661               ",
"             1881               ",
"             1331               ",
"              11                ",
"                                "
};
